<svg xmlns="http://www.w3.org/2000/svg" xmlns:xlink="http://www.w3.org/1999/xlink" viewBox="0 0 91.72 99.61"><defs><style>.cls-1{isolation:isolate;}.cls-2{fill:#00c2b6;}.cls-3,.cls-4{opacity:0.72;mix-blend-mode:darken;}.cls-3{fill:url(#linear-gradient);}.cls-4{fill:url(#linear-gradient-2);}.cls-5{fill:#00a79d;}.cls-6{fill:#fff;}</style><linearGradient id="linear-gradient" x1="46.03" y1="75.07" x2="67" y2="92.64" gradientUnits="userSpaceOnUse"><stop offset="0"/><stop offset="0.83" stop-opacity="0"/><stop offset="1" stop-opacity="0"/></linearGradient><linearGradient id="linear-gradient-2" x1="73.02" y1="51.61" x2="84.93" y2="78.82" xlink:href="#linear-gradient"/></defs><title>qqb</title><g class="cls-1"><g id="Layer_1" data-name="Layer 1"><polygon class="cls-2" points="64.38 77.36 80.48 99.61 48.29 83.04 57.45 78.57 64.38 77.36"/><polygon class="cls-3" points="57.55 79.5 80.48 99.61 48.29 83.04 57.45 78.57 57.55 79.5"/><polygon class="cls-2" points="91.72 90.62 91.42 90.33 72.31 70.84 72.31 70.83 74.11 64.86 79.83 56.42 80.52 58.41 91.42 89.77 91.57 90.19 91.72 90.62"/><polygon class="cls-4" points="75.26 66.04 91.72 90.62 79.83 56.42 74.12 64.87 75.26 66.04"/><path class="cls-2" d="M41.94,0A42,42,0,1,0,64.39,77.36l0.07,0L59.26,70.4a33.52,33.52,0,1,1,6.93-5.65l6.12,6.08h0a41.83,41.83,0,0,0,3.41-4.07,42.46,42.46,0,0,0,4.78-8.34A41.95,41.95,0,0,0,41.94,0Z"/><path class="cls-5" d="M51.24,49.94a12.21,12.21,0,1,0-4.77,3.41l7.64,10.18a24.72,24.72,0,1,1,6-4.76Z"/><polygon class="cls-6" points="91.72 90.06 91.57 90.19 91.48 90.27 91.42 90.33 72.31 70.84 72.31 70.83 72.32 70.83 90.61 88.97 90.62 88.98 91.42 89.77 91.72 90.06"/><path class="cls-6" d="M72.74,70.39"/></g></g></svg>