<?xml version="1.0" encoding="UTF-8" standalone="no"?>
<!DOCTYPE svg  PUBLIC '-//W3C//DTD SVG 1.1//EN'  'http://www.w3.org/Graphics/SVG/1.1/DTD/svg11.dtd'>
<svg xmlns="http://www.w3.org/2000/svg" version="1.1">
<defs>
<font id="CPMono_v07Bold" horiz-adv-x="650">
<font-face font-family="CPMono_v07 Bold" panose-1="2 0 5 9 3 0 0 2 0 4" x-height="542" bbox="-249 -240 899 917" unicode-range="U+0020-F7FF" underline-position="-318" font-weight="307" units-per-em="1000" ascent="760" underline-thickness="160" cap-height="684" descent="-240"/>
<missing-glyph d="M0 -158v1000h650v-1000h-650zM76 766v-848h498v848h-498zM111 0l168 342l-168 342h92l121 -233l122 233h92l-168 -342l168 -342h-92l-122 232l-121 -232h-92z"/>
<glyph d="M0 -158v1000h650v-1000h-650zM76 766v-848h498v848h-498zM111 0l168 342l-168 342h92l121 -233l122 233h92l-168 -342l168 -342h-92l-122 232l-121 -232h-92z" glyph-name=".notdef"/>
<glyph horiz-adv-x="0" glyph-name=".null"/>
<glyph glyph-name="nonmarkingreturn"/>
<glyph unicode=" " glyph-name="space"/>
<glyph d="M395 198h-140v487h140v-487zM399 0h-148v142h148v-142z" unicode="!" glyph-name="exclam"/>
<glyph d="M293 529h-131v247h131v-247zM487 529h-131v247h131v-247z" unicode='&quot;' glyph-name="quotedbl"/>
<glyph d="M361 0v115h-74v-115h-130v115h-110v114h110v83h-110v117h110v113h130v-113h74v113h129v-113h114v-117h-114v-83h114v-114h-114v-115h-129zM279 319v-97h89v97h-89z" unicode="#" glyph-name="numbersign"/>
<glyph d="M262 -73v73h-22q-76 0 -121.5 39t-45.5 119v18l141 36v-27q0 -28 14 -41t47 -13h100q33 0 47 13t14 41v45q0 28 -14 41t-47 13h-127q-175 0 -175 163v75q0 78 49.5 120t117.5 42h22v73h126v-73h22q74 0 120 -39.5t46 -118.5v-14l-140 -36v25q0 28 -14 41t-47 13h-100 q-33 0 -47 -13t-14 -41v-36q0 -28 14 -41t47 -13h126q175 0 175 -161v-88q0 -79 -48.5 -120.5t-117.5 -41.5h-22v-73h-126z" unicode="$" glyph-name="dollar"/>
<glyph d="M444 -48h-61q-48 0 -76.5 27t-28.5 69v114q0 43 28.5 70t76.5 27h61q48 0 76.5 -27t28.5 -70v-114q0 -42 -28.5 -69t-76.5 -27zM399 39h29q30 0 30 29v76q0 29 -30 29h-29q-29 0 -29 -29v-76q0 -29 29 -29zM266 425h-61q-48 0 -76.5 27t-28.5 70v113q0 43 28.5 70 t76.5 27h61q48 0 76.5 -27t28.5 -70v-113q0 -43 -28.5 -70t-76.5 -27zM222 512h29q29 0 29 30v76q0 29 -29 29h-29q-30 0 -30 -29v-76q0 -30 30 -30zM100 206v90l449 182v-90z" unicode="%" glyph-name="percent"/>
<glyph d="M272 402v-113h-45q-33 0 -47 -13t-14 -42v-49q0 -28 14 -41t47 -13h118q33 0 47 13t14 41v107h-80v107h72v53l141 30v-83h86v-107h-86v-134q0 -158 -182 -158h-149q-182 0 -182 158v70q0 41 20 73.5t62 44.5q-42 12 -62 44.5t-20 73.5v62q0 158 182 158h149 q87 0 134.5 -38t47.5 -110v-5l-141 -30v7q0 47 -52 47h-119q-33 0 -47 -13t-14 -41v-42q0 -57 61 -57h45z" unicode="&amp;" glyph-name="ampersand"/>
<glyph d="M390 529h-131v247h131v-247z" unicode="&apos;" glyph-name="quotesingle"/>
<glyph d="M464 805v-133h-74q-33 0 -46.5 -13t-13.5 -41v-601q0 -29 13.5 -42t46.5 -13h74v-132h-93q-182 0 -182 158v659q0 158 182 158h93z" unicode="(" glyph-name="parenleft"/>
<glyph d="M185 672v133h93q183 0 183 -158v-659q0 -158 -183 -158h-93v132h75q33 0 46.5 13t13.5 42v601q0 28 -14 41t-46 13h-75z" unicode=")" glyph-name="parenright"/>
<glyph d="M549 648l-117 -64v-4l145 -80l-83 -79l-114 69l-3 -2l3 -166l-110 33l2 133l-2 1l-142 -85l-27 112l117 64v4l-146 80l84 79l114 -69l2 2l-2 166l110 -33l-3 -133l3 -2l142 86z" unicode="*" glyph-name="asterisk"/>
<glyph d="M89 375h172v179h140v-179h172v-129h-172v-179h-140v179h-172v129z" unicode="+" glyph-name="plus"/>
<glyph d="M247 0v146h155v-157q0 -58 -29.5 -93.5t-87.5 -35.5h-28l-25 62h26q28 0 45 18.5t17 46.5v13h-73z" unicode="," glyph-name="comma"/>
<glyph d="M493 246h-337v129h337v-129z" unicode="-" glyph-name="hyphen"/>
<glyph d="M402 0h-155v146h155v-146z" unicode="." glyph-name="period"/>
<glyph d="M107 -91l296 851h139l-296 -851h-139z" unicode="/" glyph-name="slash"/>
<glyph d="M398 0h-146q-182 0 -182 158v368q0 158 182 158h146q182 0 182 -158v-368q0 -158 -182 -158zM271 131h108q33 0 46.5 13t13.5 41v316q0 28 -13.5 41t-46.5 13h-108q-33 0 -47 -13t-14 -41v-316q0 -28 14 -41t47 -13z" unicode="0" glyph-name="zero"/>
<glyph d="M431 684v-553h177v-131h-502v131h185v424h-158v129h298z" unicode="1" glyph-name="one"/>
<glyph d="M591 0h-527v113l345 300q19 18 24.5 29.5t5.5 32.5v26q0 28 -14 41t-47 13h-108q-33 0 -47 -13t-14 -41v-48l-140 36v37q0 158 182 158h146q182 0 182 -158v-61q0 -76 -68 -132l-229 -200v-2h309v-131z" unicode="2" glyph-name="two"/>
<glyph d="M70 184l140 36v-35q0 -28 14 -41t47 -13h108q33 0 46.5 13t13.5 41v44q0 28 -14 41t-46 13h-109v125h109q60 0 60 57v36q0 28 -13.5 41t-46.5 13h-108q-33 0 -47 -13t-14 -41v-33l-140 36v22q0 158 182 158h146q182 0 182 -158v-62q0 -41 -20 -73.5t-62 -44.5 q42 -12 62 -44.5t20 -73.5v-70q0 -158 -182 -158h-146q-182 0 -182 158v26z" unicode="3" glyph-name="three"/>
<glyph d="M622 155h-103v-155h-140v155h-342v126l312 403h170v-400h103v-129zM379 284v226l-175 -226h175z" unicode="4" glyph-name="four"/>
<glyph d="M584 284v-126q0 -158 -182 -158h-136q-182 0 -182 158v20l140 31v-24q0 -28 14 -41t47 -13h98q33 0 47 13t14 41v76q0 29 -14 42t-47 13h-92q-67 0 -67 -45h-140v413h485v-129h-345v-141q38 28 109 28h74q80 0 128.5 -38.5t48.5 -119.5z" unicode="5" glyph-name="five"/>
<glyph d="M590 261v-103q0 -158 -182 -158h-146q-182 0 -182 158v368q0 158 178 158h150q182 0 182 -158v-14l-141 -33v22q0 28 -13.5 41t-46.5 13h-108q-33 0 -47 -13t-14 -41v-105q27 29 109 29h83q92 0 135 -40t43 -124zM449 185v59q0 28 -13.5 41t-46.5 13h-102q-67 0 -67 -49 v-64q0 -28 14 -41t47 -13h108q33 0 46.5 13t13.5 41z" unicode="6" glyph-name="six"/>
<glyph d="M577 561l-241 -561h-156l247 555h-355v129h505v-123z" unicode="7" glyph-name="seven"/>
<glyph d="M576 228v-70q0 -158 -182 -158h-139q-182 0 -182 158v70q0 40 19 73t56 45q-37 12 -56 45t-19 73v62q0 158 182 158h139q182 0 182 -158v-62q0 -40 -19 -73t-55 -45q36 -12 55 -45t19 -73zM436 464v37q0 28 -14 41t-47 13h-100q-33 0 -47 -13t-14 -41v-37q0 -29 13.5 -42 t46.5 -13h101q33 0 47 13t14 42zM436 185v43q0 29 -14 42t-47 13h-101q-33 0 -46.5 -13t-13.5 -42v-43q0 -28 14 -41t47 -13h100q33 0 47 13t14 41z" unicode="8" glyph-name="eight"/>
<glyph d="M60 425v101q0 158 182 158h146q182 0 182 -158v-368q0 -158 -182 -158h-147q-181 0 -181 158v11l140 38v-22q0 -28 14 -41t47 -13h108q32 0 46 13t14 41v104q-19 -23 -112 -23h-87q-92 0 -131 37t-39 122zM200 501v-54q0 -29 14 -42t47 -13h108q60 0 60 50v59 q0 28 -14 41t-46 13h-108q-33 0 -47 -13t-14 -41z" unicode="9" glyph-name="nine"/>
<glyph d="M402 360h-155v146h155v-146zM402 0h-155v146h155v-146z" unicode=":" glyph-name="colon"/>
<glyph d="M247 0v146h155v-157q0 -58 -29.5 -93.5t-87.5 -35.5h-28l-25 62h26q28 0 45 18.5t17 46.5v13h-73zM402 360h-155v146h155v-146z" unicode=";" glyph-name="semicolon"/>
<glyph d="M534 569v-143l-247 -115v-2l247 -114v-143l-419 205v107z" unicode="&lt;" glyph-name="less"/>
<glyph d="M542 140h-434v129h434v-129zM542 350h-434v129h434v-129z" unicode="=" glyph-name="equal"/>
<glyph d="M115 426v143l419 -205v-107l-419 -205v143l247 114v2z" unicode="&gt;" glyph-name="greater"/>
<glyph d="M356 198h-141v79q0 68 34 104.5t98 36.5h23q33 0 47 12t14 38v33q0 28 -14 41t-47 13h-110q-33 0 -47 -13t-14 -41v-33l-141 36v22q0 158 182 158h142q89 0 139 -40.5t50 -121.5v-75q0 -77 -39 -116t-99 -39h-20q-32 0 -44.5 -12t-12.5 -41v-41zM359 0h-147v142h147v-142 z" unicode="?" glyph-name="question"/>
<glyph d="M632 -71l-34 -99h-422q-78 0 -122.5 37t-44.5 109v420q0 72 44.5 109t122.5 37h304q160 0 160 -139v-248q0 -76 -25 -115.5t-96 -39.5h-27q-78 0 -99 46h-3q-26 -46 -92 -46h-29q-98 0 -98 106v162q0 107 98 107h29q60 0 84 -43h3l9 40h81v-247q0 -22 6.5 -30t24.5 -8 q17 0 24 8.5t7 31.5v254q0 33 -16 47.5t-54 14.5h-275q-38 0 -59 -18.5t-21 -50.5v-376q0 -32 21 -50.5t59 -18.5h440zM274 234v-89q0 -43 35 -43h18q21 0 33 17.5t12 42.5v54q0 25 -12 42.5t-33 17.5h-18q-35 0 -35 -42z" unicode="@" glyph-name="at"/>
<glyph d="M397 684l212 -507v-177h-140v155l-13 31h-262l-13 -31v-155h-141v177l212 507h145zM322 523l-86 -212h177l-86 212h-5z" unicode="A" glyph-name="A"/>
<glyph d="M85 0v684h313q182 0 182 -158v-60q0 -41 -20 -73.5t-62 -44.5q42 -12 62 -44.5t20 -73.5v-72q0 -158 -182 -158h-313zM225 411h154q32 0 46 13.5t14 42.5v34q0 28 -13.5 41t-46.5 13h-154v-144zM225 131h154q33 0 46.5 13t13.5 41v45q0 28 -14 41t-46 13h-154v-153z" unicode="B" glyph-name="B"/>
<glyph d="M581 217v-59q0 -158 -182 -158h-147q-182 0 -182 158v368q0 158 182 158h147q182 0 182 -158v-52l-140 -36v63q0 28 -14 41t-47 13h-109q-33 0 -47 -13t-14 -41v-316q0 -28 14 -41t47 -13h109q33 0 47 13t14 41v72z" unicode="C" glyph-name="C"/>
<glyph d="M581 526v-368q0 -158 -178 -158h-335v684h335q178 0 178 -158zM441 185v316q0 28 -14 41t-47 13h-171v-424h171q33 0 47 13t14 41z" unicode="D" glyph-name="D"/>
<glyph d="M563 0h-477v684h477v-129h-336v-141h274v-127h-274v-156h336v-131z" unicode="E" glyph-name="E"/>
<glyph d="M586 555h-345v-165h292v-127h-292v-263h-141v684h486v-129z" unicode="F" glyph-name="F"/>
<glyph d="M580 382v-224q0 -158 -182 -158h-146q-182 0 -182 158v368q0 158 182 158h153q88 0 131.5 -38t43.5 -120v-29l-141 -36v40q0 28 -14 41t-47 13h-107q-33 0 -47 -13t-14 -41v-316q0 -28 14 -41t46 -13h117q32 0 44 11t12 40v90h-104v110h241z" unicode="G" glyph-name="G"/>
<glyph d="M589 0h-141v283h-248v-283h-140v684h140v-274h248v274h141v-684z" unicode="H" glyph-name="H"/>
<glyph d="M75 0v131h180v424h-170v129h479v-129h-169v-424h180v-131h-500z" unicode="I" glyph-name="I"/>
<glyph d="M107 555v129h457v-526q0 -158 -182 -158h-132q-182 0 -182 158v75l141 40v-88q0 -28 14 -41t47 -13h92q33 0 47 13t14 41v370h-316z" unicode="J" glyph-name="J"/>
<glyph d="M582 0h-137v163l-144 146l-98 -101v-208h-140v684h140v-280h4l234 280h182l-234 -270l193 -190v-224z" unicode="K" glyph-name="K"/>
<glyph d="M589 0h-509v684h140v-553h369v-131z" unicode="L" glyph-name="L"/>
<glyph d="M614 0h-141v436h-4l-100 -214h-88l-100 214h-5v-436h-140v684h148l141 -279l141 279h148v-684z" unicode="M" glyph-name="M"/>
<glyph d="M590 0h-137l-247 413h-6v-413h-140v684h135l248 -424h6v424h141v-684z" unicode="N" glyph-name="N"/>
<glyph d="M409 0h-169q-182 0 -182 158v368q0 158 182 158h169q182 0 182 -158v-368q0 -158 -182 -158zM260 131h130q33 0 47 13t14 41v316q0 28 -14 41t-47 13h-130q-33 0 -47 -13t-14 -41v-316q0 -28 14 -41t47 -13z" unicode="O" glyph-name="O"/>
<glyph d="M592 526v-111q0 -158 -182 -158h-171v-257h-141v684h312q182 0 182 -158zM452 446v55q0 28 -14 41t-47 13h-152v-171h152q61 0 61 62z" unicode="P" glyph-name="P"/>
<glyph d="M491 -110l-98 110h-149q-182 0 -182 158v368q0 158 182 158h159q182 0 182 -158v-368q0 -93 -64 -126l131 -142h-161zM263 131h121q33 0 46.5 13t13.5 41v316q0 28 -13.5 41t-46.5 13h-121q-33 0 -46.5 -13t-13.5 -41v-316q0 -28 13.5 -41t46.5 -13z" unicode="Q" glyph-name="Q"/>
<glyph d="M581 0h-140v127l-97 130h-123v-257h-141v684h318q183 0 183 -158v-100q0 -51 -26.5 -86.5t-72.5 -47.5l99 -131v-161zM221 384h159q33 0 47 13t14 41v63q0 28 -14 41t-47 13h-159v-171z" unicode="R" glyph-name="R"/>
<glyph d="M214 212v-27q0 -28 14 -41t47 -13h100q33 0 47 13t14 41v45q0 28 -14 41t-47 13h-127q-175 0 -175 163v75q0 81 50.5 121.5t139.5 40.5h131q182 0 182 -158v-14l-140 -36v25q0 28 -14 41t-47 13h-100q-33 0 -47 -13t-14 -41v-36q0 -28 14 -41t47 -13h126q175 0 175 -161 v-88q0 -82 -50 -122t-139 -40h-132q-182 0 -182 158v18z" unicode="S" glyph-name="S"/>
<glyph d="M609 555h-214v-555h-140v555h-215v129h569v-129z" unicode="T" glyph-name="T"/>
<glyph d="M581 684v-526q0 -158 -182 -158h-149q-182 0 -182 158v526h141v-499q0 -28 14 -41t47 -13h110q33 0 47 13t14 41v499h140z" unicode="U" glyph-name="U"/>
<glyph d="M607 494l-206 -494h-152l-206 494v190h140v-171l140 -353h4l139 353v171h141v-190z" unicode="V" glyph-name="V"/>
<glyph d="M280 463h89l67 -227h7l49 303v145h130v-175l-94 -509h-127l-73 224h-6l-73 -224h-127l-94 509v175h129v-145l49 -303h8z" unicode="W" glyph-name="W"/>
<glyph d="M325 437l107 110v137h141v-181l-155 -147l175 -175v-181h-141v135l-127 132l-127 -132v-135h-141v181l175 175l-155 147v181h141v-137z" unicode="X" glyph-name="X"/>
<glyph d="M599 490l-203 -196v-294h-141v294l-205 196v194h141v-143l134 -135l134 135v143h140v-194z" unicode="Y" glyph-name="Y"/>
<glyph d="M584 0h-519v123l334 432h-319v129h495v-123l-335 -430h344v-131z" unicode="Z" glyph-name="Z"/>
<glyph d="M464 -170h-275v975h275v-133h-134v-710h134v-132z" unicode="[" glyph-name="bracketleft"/>
<glyph d="M246 760l296 -851h-139l-296 851h139z" unicode="\" glyph-name="backslash"/>
<glyph d="M185 805h276v-975h-276v132h135v710h-135v133z" unicode="]" glyph-name="bracketright"/>
<glyph d="M53 413l225 297h94l224 -297h-156l-115 158l-115 -158h-157z" unicode="^" glyph-name="asciicircum"/>
<glyph d="M622 0h-594v131h594v-131z" unicode="_" glyph-name="underscore"/>
<glyph d="M308 623l-101 128h135l101 -128h-135z" unicode="`" glyph-name="grave"/>
<glyph d="M550 0h-133v39h-3q-41 -39 -128 -39h-50q-157 0 -157 150v42q0 150 157 150h42q96 0 136 -37h3v62q0 32 -15 46.5t-49 14.5h-67q-29 0 -40.5 -10.5t-11.5 -33.5v-13l-133 32v12q0 59 45.5 93t128.5 34h89q88 0 137 -44t49 -127v-371zM329 232h-59q-58 0 -58 -49v-18 q0 -26 14 -37.5t44 -11.5h59q88 0 88 47v22q0 47 -88 47z" unicode="a" glyph-name="a"/>
<glyph d="M381 413h-47q-41 0 -68 -20.5t-27 -61.5v-118q0 -41 27 -61.5t68 -20.5h47q37 0 53.5 18t16.5 57v132q0 39 -16.5 57t-53.5 18zM239 46v-46h-140v684h140v-189h3q38 47 129 47h65q155 0 155 -163v-216q0 -163 -155 -163h-65q-90 0 -129 46h-3z" unicode="b" glyph-name="b"/>
<glyph d="M224 359v-174q0 -28 14 -41t47 -13h79q33 0 47 13t14 41v33l140 -40v-20q0 -158 -182 -158h-117q-182 0 -182 158v226q0 158 182 158h117q182 0 182 -158v-29l-140 -36v40q0 28 -14 41t-47 13h-79q-33 0 -47 -13t-14 -41z" unicode="c" glyph-name="c"/>
<glyph d="M316 413h-48q-37 0 -53 -18t-16 -57v-132q0 -39 16 -57t53 -18h48q41 0 68 20.5t27 61.5v118q0 41 -27 61.5t-68 20.5zM411 0v46h-3q-39 -46 -129 -46h-65q-156 0 -156 163v216q0 163 156 163h65q91 0 129 -47h3v189h140v-684h-140z" unicode="d" glyph-name="d"/>
<glyph d="M559 374v-150h-336v-52q0 -29 14 -42.5t47 -13.5h78q34 0 49 11t15 36v25l133 -25v-22q0 -77 -49 -109t-141 -32h-97q-182 0 -182 158v226q0 158 182 158h105q87 0 134.5 -43t47.5 -125zM223 373v-42h203v40q0 30 -12 43.5t-49 13.5h-81q-37 0 -49 -13t-12 -42z" unicode="e" glyph-name="e"/>
<glyph d="M57 289v127h142v110q0 158 182 158h196l-32 -129h-145q-33 0 -46.5 -13t-13.5 -41v-85h192v-127h-192v-289h-141v289h-142z" unicode="f" glyph-name="f"/>
<glyph d="M421 542h140v-624q0 -80 -51 -119t-141 -39h-119q-182 0 -182 154v13l141 36v-24q0 -28 14 -41t47 -13h89q34 0 48 13t14 41v107h-3q-39 -46 -129 -46h-65q-156 0 -156 163v216q0 163 156 163h65q91 0 129 -47h3v47zM278 131h48q41 0 68 20.5t27 61.5v118q0 41 -27 61.5 t-68 20.5h-48q-37 0 -53 -18t-16 -57v-132q0 -39 16 -57t53 -18z" unicode="g" glyph-name="g"/>
<glyph d="M574 0h-141v338q0 39 -16 57t-53 18h-48q-41 0 -68 -20.5t-27 -61.5v-331h-140v684h140v-189h3q38 47 129 47h65q156 0 156 -163v-379z" unicode="h" glyph-name="h"/>
<glyph d="M85 0v131h202v282h-182v129h323v-411h171v-131h-514zM428 633h-145v129h145v-129z" unicode="i" glyph-name="i"/>
<glyph d="M532 542v-624q0 -80 -51 -119t-141 -39h-88q-181 0 -181 154v65l140 40v-80q0 -28 14 -41t47 -13h59q33 0 47 13t14 41v474h-233v129h373zM532 633h-145v129h145v-129z" unicode="j" glyph-name="j"/>
<glyph d="M555 0h-140v144l-112 109l-99 -95v-158h-140v684h140v-357h2l207 215h188l-205 -195l159 -160v-187z" unicode="k" glyph-name="k"/>
<glyph d="M78 0v131h202v424h-182v129h322v-553h172v-131h-514z" unicode="l" glyph-name="l"/>
<glyph d="M32 0v542h113v-58h2q21 58 95 58h41q41 0 59 -15t25 -43h2q19 58 96 58h39q62 0 88 -37t26 -120v-385h-124v367q0 28 -7.5 39t-26.5 11h-30q-45 0 -45 -71v-346h-121v375q0 22 -7 32t-25 10h-31q-45 0 -45 -71v-346h-124z" unicode="m" glyph-name="m"/>
<glyph d="M570 0h-141v339q0 39 -16.5 56.5t-52.5 17.5h-45q-41 0 -68 -20.5t-27 -61.5v-331h-140v542h140v-47h3q38 47 129 47h62q156 0 156 -163v-379z" unicode="n" glyph-name="n"/>
<glyph d="M386 0h-122q-182 0 -182 158v226q0 158 182 158h122q182 0 182 -158v-226q0 -158 -182 -158zM283 131h84q33 0 47 13t14 42v173q0 28 -14 41t-47 13h-84q-33 0 -47 -13t-14 -41v-174q0 -28 14 -41t47 -13z" unicode="o" glyph-name="o"/>
<glyph d="M229 542v-47h3q38 47 128 47h66q155 0 155 -163v-216q0 -163 -155 -163h-66q-89 0 -128 46h-3v-257h-141v753h141zM323 131h48q37 0 53.5 18t16.5 57v132q0 39 -16.5 57t-53.5 18h-48q-40 0 -67 -21t-27 -61v-118q0 -40 27 -61t67 -21z" unicode="p" glyph-name="p"/>
<glyph d="M421 495v47h140v-753h-140v257h-3q-39 -46 -129 -46h-65q-156 0 -156 163v216q0 163 156 163h65q91 0 129 -47h3zM278 131h48q41 0 68 20.5t27 61.5v118q0 41 -27 61.5t-68 20.5h-48q-37 0 -53 -18t-16 -57v-132q0 -39 16 -57t53 -18z" unicode="q" glyph-name="q"/>
<glyph d="M596 337l-141 -36v42q0 39 -14 54.5t-50 15.5h-43q-42 0 -69 -20.5t-27 -61.5v-331h-140v542h140v-47h3q38 47 129 47h56q156 0 156 -163v-42z" unicode="r" glyph-name="r"/>
<glyph d="M228 180v-21q0 -24 11.5 -33.5t46.5 -9.5h77q32 0 45 10t13 34v15q0 25 -14.5 36t-54.5 11h-85q-93 0 -132.5 33t-39.5 111v28q0 148 185 148h103q93 0 132 -33t39 -95v-10l-133 -34v16q0 23 -11 32.5t-46 9.5h-78q-30 0 -44 -9t-14 -32v-12q0 -24 15 -33.5t55 -9.5h77 q93 0 136 -37.5t43 -115.5v-31q0 -148 -184 -148h-103q-94 0 -133 33.5t-39 95.5v21z" unicode="s" glyph-name="s"/>
<glyph d="M43 415v127h161v142h140v-142h207v-127h-207v-230q0 -28 14 -41t47 -13h138l24 -131h-181q-182 0 -182 156v259h-161z" unicode="t" glyph-name="t"/>
<glyph d="M78 542h141v-336q0 -39 16 -57t53 -18h48q41 0 68 20.5t27 61.5v329h140v-542h-140v46h-3q-39 -46 -129 -46h-65q-156 0 -156 163v379z" unicode="u" glyph-name="u"/>
<glyph d="M440 542h140v-190l-179 -352h-152l-180 352v190h141v-167l113 -231h4l113 231v167z" unicode="v" glyph-name="v"/>
<glyph d="M285 435h80l74 -224h6l43 167v164h133v-174l-107 -368h-117l-70 207h-5l-69 -207h-117l-107 368v174h133v-164l43 -167h6z" unicode="w" glyph-name="w"/>
<glyph d="M325 361l89 82v99h140v-139l-136 -118l155 -136v-149h-140v106l-108 97l-108 -97v-106h-140v149l155 136l-137 118v139h141v-99z" unicode="x" glyph-name="x"/>
<glyph d="M432 542h140v-624q0 -80 -51 -119t-141 -39h-122q-181 0 -181 154v13l141 36v-24q0 -28 13.5 -41t46.5 -13h93q33 0 47 13t14 41v107h-3q-39 -46 -129 -46h-67q-156 0 -156 163v379h141v-336q0 -39 16 -57t53 -18h50q41 0 68 20.5t27 61.5v329z" unicode="y" glyph-name="y"/>
<glyph d="M570 0h-491v114l293 301v2h-277v125h466v-114l-290 -299v-2h299v-127z" unicode="z" glyph-name="z"/>
<glyph d="M499 -170h-79q-182 0 -182 158v241q0 28 -14 41t-47 13h-23v125h23q33 0 47 13t14 42v184q0 158 182 158h78v-133h-59q-33 0 -46.5 -13t-13.5 -41v-162q0 -49 -14.5 -73.5t-52.5 -34.5v-4q38 -10 52.5 -34.5t14.5 -74.5v-218q0 -29 13.5 -42t46.5 -13h60v-132z" unicode="{" glyph-name="braceleft"/>
<glyph d="M255 -91v851h140v-851h-140z" unicode="|" glyph-name="bar"/>
<glyph d="M150 805h79q182 0 182 -158v-184q0 -29 14 -42t47 -13h23v-125h-23q-33 0 -47 -13t-14 -41v-241q0 -158 -182 -158h-78v132h59q33 0 46.5 13t13.5 42v218q0 50 14.5 74.5t52.5 34.5v4q-38 10 -52.5 34.5t-14.5 73.5v162q0 28 -13.5 41t-46.5 13h-60v133z" unicode="}" glyph-name="braceright"/>
<glyph d="M440 610h131q0 -82 -42.5 -134.5t-124.5 -52.5q-36 0 -64.5 14t-49 28t-35.5 14q-45 0 -45 -58h-131q0 82 42 134.5t124 52.5q47 0 91 -28t59 -28q45 0 45 58z" unicode="~" glyph-name="asciitilde"/>
<glyph unicode=" " glyph-name="nbspace"/>
<glyph d="M255 344h140v-487h-140v487zM251 542h148v-142h-148v142z" unicode="¡" glyph-name="exclamdown"/>
<glyph d="M266 -75v75h-19q-74 0 -120 39.5t-46 118.5v226q0 79 46 118.5t120 39.5h19v75h118v-75h18q74 0 120.5 -39.5t46.5 -118.5v-29l-141 -36v40q0 28 -14 41t-47 13h-85q-33 0 -47 -13t-14 -41v-174q0 -28 14 -41t47 -13h85q33 0 47 13t14 41v33l141 -40v-20 q0 -80 -45.5 -119t-121.5 -39h-18v-75h-118z" unicode="¢" glyph-name="cent"/>
<glyph d="M593 131v-131h-490v276h-83v126h83v124q0 158 182 158h149q182 0 182 -158v-26l-141 -36v37q0 28 -14 41t-47 13h-110q-33 0 -47 -13t-14 -41v-99h175l-35 -126h-140v-145h350z" unicode="£" glyph-name="sterling"/>
<glyph d="M128 348q0 50 21 89l-80 81l86 86l82 -83q42 21 88 21t88 -21l82 83l86 -86l-81 -81q22 -41 22 -89q0 -49 -22 -90l81 -80l-86 -86l-82 82q-39 -21 -88 -21t-88 21l-82 -82l-86 86l80 80q-21 39 -21 90zM250 348q0 -34 20.5 -55t54.5 -21t54.5 21t20.5 55t-20.5 54.5 t-54.5 20.5t-54.5 -20.5t-20.5 -54.5z" unicode="¤" glyph-name="currency"/>
<glyph d="M121 248l-32 92h131v1l-170 149v194h141v-141l134 -137l134 137v141h140v-194l-169 -149v-1h129l-33 -92h-131v-44h114l-33 -92h-81v-112h-140v112h-84l-33 92h117v44h-134z" unicode="¥" glyph-name="yen"/>
<glyph d="M255 416v344h140v-344h-140zM255 -91v360h140v-360h-140z" unicode="¦" glyph-name="brokenbar"/>
<glyph d="M443 567v22q0 27 -13.5 38.5t-47.5 11.5h-98q-34 0 -47.5 -11.5t-13.5 -38.5v-21q0 -28 13.5 -39.5t46.5 -11.5h122q179 0 179 -150v-32q0 -92 -67 -124q67 -32 67 -115v-33q0 -78 -50 -116t-140 -38h-130q-87 0 -134.5 37t-47.5 106v17l141 36v-21q0 -28 13.5 -39 t47.5 -11h98q34 0 47.5 11t13.5 39v20q0 28 -13.5 39.5t-46.5 11.5h-122q-179 0 -179 150v32q0 92 67 124q-67 32 -67 115v30q0 78 50 116t140 38h130q87 0 134.5 -37t47.5 -106v-14zM382 400h-99q-33 0 -46.5 -11.5t-13.5 -39.5v-26q0 -28 13.5 -39.5t47.5 -11.5h99 q33 0 46.5 11.5t13.5 39.5v26q0 28 -13.5 39.5t-47.5 11.5z" unicode="§" glyph-name="section"/>
<glyph d="M288 628h-126v110h126v-110zM488 628h-127v110h127v-110z" unicode="¨" glyph-name="dieresis"/>
<glyph d="M450 0h-251q-182 0 -182 158v368q0 158 182 158h251q182 0 182 -158v-368q0 -158 -182 -158zM211 110h228q79 0 79 81v302q0 81 -79 81h-228q-80 0 -80 -81v-302q0 -81 80 -81zM273 389v-97q0 -20 8.5 -28t29.5 -8h32q22 0 30 8t8 28v32l81 -22v-24q0 -60 -24 -84.5 t-90 -24.5h-47q-66 0 -89.5 25t-23.5 91v119q0 61 24 85t89 24h50q65 0 88 -23t23 -81v-20l-81 -21v21q0 20 -8 28.5t-30 8.5h-32q-21 0 -29.5 -8.5t-8.5 -28.5z" unicode="©" glyph-name="copyright"/>
<glyph d="M489 379h-102v31h-4q-26 -37 -87 -37h-37q-52 0 -75 24t-23 74v22q0 51 22.5 74t75.5 23h41q52 0 83 -24h4v37q0 21 -7.5 29t-27.5 8h-48q-17 0 -23.5 -6t-6.5 -20v-5l-100 21v7q0 36 27 58t72 22h106q110 0 110 -101v-237zM331 520h-38q-36 0 -36 -29v-13q0 -28 36 -28 h38q54 0 54 32v8q0 30 -54 30z" unicode="ª" glyph-name="ordfeminine"/>
<glyph d="M212 82h-141l125 218l-125 218h141l127 -218zM455 82h-140l125 218l-125 218h140l128 -218z" unicode="«" glyph-name="guillemotleft"/>
<glyph d="M420 73v173h-335v129h479v-302h-144z" unicode="¬" glyph-name="logicalnot"/>
<glyph d="M445 308h-241q-147 0 -147 128v280q0 128 147 128h241q147 0 147 -128v-280q0 -128 -147 -128zM214 395h222q60 0 60 56v250q0 56 -60 56h-222q-61 0 -61 -56v-250q0 -56 61 -56zM443 442h-70v42l-37 51h-53v-93h-69v266h159q70 0 70 -59v-46q0 -20 -11.5 -35t-27.5 -19 v-2l39 -49v-56zM283 589h68q22 0 22 20v22q0 20 -22 20h-68v-62z" unicode="®" glyph-name="registered"/>
<glyph d="M480 633h-310v100h310v-100z" unicode="¯" glyph-name="macron"/>
<glyph d="M250 619q0 -34 20.5 -54.5t54.5 -20.5t54.5 20.5t20.5 54.5t-20.5 54.5t-54.5 20.5t-54.5 -20.5t-20.5 -54.5zM128 619q0 85 55.5 139.5t141.5 54.5q85 0 141 -55t56 -139q0 -85 -56 -139.5t-141 -54.5q-86 0 -141.5 54.5t-55.5 139.5z" unicode="°" glyph-name="degree"/>
<glyph d="M102 498h153v149h140v-149h153v-129h-153v-149h-140v149h-153v129zM548 43h-446v128h446v-128z" unicode="±" glyph-name="plusminus"/>
<glyph d="M470 357h-281v71l159 132q20 16 20 35v12q0 27 -31 27h-35q-29 0 -29 -23v-20l-92 24v26q0 38 26.5 57t69.5 19h101q41 0 65 -22t24 -61v-32q0 -29 -8 -46t-29 -34l-96 -81h136v-84z" unicode="²" glyph-name="twosuperior"/>
<glyph d="M180 461l93 18v-15q0 -23 29 -23h39q30 0 30 23v18q0 22 -33 22h-41v66h41q33 0 33 23v17q0 24 -30 24h-39q-29 0 -29 -23v-15l-93 19v26q0 38 26.5 57t70.5 19h103q41 0 65 -22t24 -61v-41q0 -44 -39 -56q39 -11 39 -56v-41q0 -39 -23.5 -61t-65.5 -22h-103 q-44 0 -70.5 19t-26.5 57v28z" unicode="³" glyph-name="threesuperior"/>
<glyph d="M443 751l-101 -128h-135l101 128h135z" unicode="´" glyph-name="acute"/>
<glyph d="M86 -170v712h141v-329q0 -41 26.5 -61.5t67.5 -20.5h48q37 0 53 18t16 57v336h141v-379q0 -163 -156 -163h-65q-90 0 -129 46h-2v-216h-141z" unicode="µ" glyph-name="mu"/>
<glyph d="M402 246h-155v146h155v-146z" unicode="·" glyph-name="periodcentered"/>
<glyph d="M336 -28h110v-31q0 -56 -28 -83.5t-96 -27.5h-119l38 90h57q38 0 38 35v17z" unicode="¸" glyph-name="cedilla"/>
<glyph d="M374 717v-275h77v-85h-252v85h77v192h-74v83h172z" unicode="¹" glyph-name="onesuperior"/>
<glyph d="M376 357h-103q-115 0 -115 98v163q0 99 115 99h103q115 0 115 -99v-163q0 -98 -115 -98zM293 441h63q35 0 35 30v133q0 30 -35 30h-63q-35 0 -35 -30v-133q0 -30 35 -30z" unicode="º" glyph-name="ordmasculine"/>
<glyph d="M335 82h-141l-127 218l127 218h141l-125 -218zM578 82h-140l-127 218l127 218h140l-123 -218z" unicode="»" glyph-name="guillemotright"/>
<glyph d="M170 703v-275h69v-85h-237v85h69v192h-66v83h165zM648 45h-49v-62h-93v62h-193v82l177 216h109v-214h49v-84zM506 129v100h-4l-80 -100h84zM38 17l512 710l67 -52l-513 -709z" unicode="¼" glyph-name="onequarter"/>
<glyph d="M170 703v-275h69v-85h-237v85h69v192h-66v83h165zM648 -17h-281v71l159 132q20 16 20 35v12q0 27 -31 27h-35q-29 0 -29 -23v-20l-85 16v34q0 38 26.5 57t70.5 19h92q42 0 65.5 -22t23.5 -61v-32q0 -29 -7.5 -46t-28.5 -34l-96 -81h136v-84zM38 17l512 710l67 -52 l-513 -709z" unicode="½" glyph-name="onehalf"/>
<glyph d="M-2 447l81 19v-16q0 -22 29 -22h47q30 0 30 23v21q0 23 -33 23h-49v58h49q33 0 33 23v21q0 23 -30 23h-47q-29 0 -29 -22v-15l-81 19v25q0 38 26 57t70 19h93q41 0 65 -21.5t24 -60.5v-41q0 -45 -40 -56q40 -11 40 -56v-41q0 -39 -24 -61.5t-65 -22.5h-93q-43 0 -69.5 19 t-26.5 57v28zM648 45h-49v-62h-93v62h-193v82l177 216h109v-214h49v-84zM506 129v100h-4l-80 -100h84zM55 17l512 710l67 -52l-512 -709z" unicode="¾" glyph-name="threequarters"/>
<glyph d="M294 316h141v-79q0 -68 -34 -104.5t-98 -36.5h-23q-33 0 -47 -12t-14 -38v-33q0 -28 14 -41t47 -13h110q33 0 47 13t14 41v33l141 -36v-22q0 -158 -182 -158h-142q-89 0 -139 40.5t-50 121.5v75q0 77 39 116t99 39h20q32 0 44.5 12t12.5 41v41zM291 514h147v-142h-147 v142z" unicode="¿" glyph-name="questiondown"/>
<glyph d="M397 684l212 -507v-177h-140v155l-13 31h-262l-13 -31v-155h-141v177l212 507h145zM322 523l-86 -212h177l-86 212h-5zM278 741l-101 128h135l101 -128h-135z" unicode="À" glyph-name="Agrave"/>
<glyph d="M397 684l212 -507v-177h-140v155l-13 31h-262l-13 -31v-155h-141v177l212 507h145zM322 523l-86 -212h177l-86 212h-5zM473 869l-101 -128h-135l101 128h135z" unicode="Á" glyph-name="Aacute"/>
<glyph d="M397 684l212 -507v-177h-140v155l-13 31h-262l-13 -31v-155h-141v177l212 507h145zM322 523l-86 -212h177l-86 212h-5zM159 737l110 136h112l110 -136h-126l-35 53h-10l-36 -53h-125z" unicode="Â" glyph-name="Acircumflex"/>
<glyph d="M397 684l212 -507v-177h-140v155l-13 31h-262l-13 -31v-155h-141v177l212 507h145zM322 523l-86 -212h177l-86 212h-5zM401 874h103q0 -59 -31 -97.5t-91 -38.5q-34 0 -62.5 19t-40.5 19q-31 0 -31 -37h-103q0 60 31 98.5t91 38.5q34 0 62.5 -19t40.5 -19q31 0 31 36z " unicode="Ã" glyph-name="Atilde"/>
<glyph d="M397 684l212 -507v-177h-140v155l-13 31h-262l-13 -31v-155h-141v177l212 507h145zM322 523l-86 -212h177l-86 212h-5zM288 750h-126v110h126v-110zM488 750h-127v110h127v-110z" unicode="Ä" glyph-name="Adieresis"/>
<glyph d="M397 684l212 -507v-177h-140v155l-13 31h-262l-13 -31v-155h-141v177l212 507h145zM322 523l-86 -212h177l-86 212h-5zM288 814q0 -16 10 -26t26 -10t26 10t10 26t-10 26t-26 10t-26 -10t-10 -26zM219 814q0 45 30 74t75 29t75.5 -29t30.5 -74t-30.5 -74t-75.5 -29 t-75 29t-30 74z" unicode="Å" glyph-name="Aring"/>
<glyph d="M153 156v-156h-141v187l266 497h354v-129h-175v-141h128v-127h-128v-156h175v-131h-315v180h-153zM310 483l-98 -193h105v193h-7z" unicode="Æ" glyph-name="AE"/>
<glyph d="M403 -28h-110v-17q0 -35 -38 -35h-57l-38 -90h119q68 0 96 27.5t28 83.5v31zM581 217v-59q0 -158 -182 -158h-147q-182 0 -182 158v368q0 158 182 158h147q182 0 182 -158v-52l-140 -36v63q0 28 -14 41t-47 13h-109q-33 0 -47 -13t-14 -41v-316q0 -28 14 -41t47 -13h109 q33 0 47 13t14 41v72z" unicode="Ç" glyph-name="Ccedilla"/>
<glyph d="M563 0h-477v684h477v-129h-336v-141h274v-127h-274v-156h336v-131zM278 741l-101 128h135l101 -128h-135z" unicode="È" glyph-name="Egrave"/>
<glyph d="M563 0h-477v684h477v-129h-336v-141h274v-127h-274v-156h336v-131zM473 869l-101 -128h-135l101 128h135z" unicode="É" glyph-name="Eacute"/>
<glyph d="M563 0h-477v684h477v-129h-336v-141h274v-127h-274v-156h336v-131zM159 737l110 136h112l110 -136h-126l-35 53h-10l-36 -53h-125z" unicode="Ê" glyph-name="Ecircumflex"/>
<glyph d="M563 0h-477v684h477v-129h-336v-141h274v-127h-274v-156h336v-131zM288 750h-126v110h126v-110zM488 750h-127v110h127v-110z" unicode="Ë" glyph-name="Edieresis"/>
<glyph d="M75 0v131h180v424h-170v129h479v-129h-169v-424h180v-131h-500zM278 741l-101 128h135l101 -128h-135z" unicode="Ì" glyph-name="Igrave"/>
<glyph d="M75 0v131h180v424h-170v129h479v-129h-169v-424h180v-131h-500zM473 869l-101 -128h-135l101 128h135z" unicode="Í" glyph-name="Iacute"/>
<glyph d="M75 0v131h180v424h-170v129h479v-129h-169v-424h180v-131h-500zM160 737l110 136h112l110 -136h-126l-35 53h-10l-36 -53h-125z" unicode="Î" glyph-name="Icircumflex"/>
<glyph d="M75 0v131h180v424h-170v129h479v-129h-169v-424h180v-131h-500zM288 750h-126v110h126v-110zM488 750h-127v110h127v-110z" unicode="Ï" glyph-name="Idieresis"/>
<glyph d="M31 281v125h60v278h324q178 0 178 -158v-368q0 -158 -178 -158h-324v281h-60zM453 185v316q0 28 -14 41t-47 13h-161v-149h119v-125h-119v-150h161q33 0 47 13t14 41z" unicode="Ð" glyph-name="Eth"/>
<glyph d="M590 0h-137l-247 413h-6v-413h-140v684h135l248 -424h6v424h141v-684zM401 874h103q0 -59 -31 -97.5t-91 -38.5q-34 0 -62.5 19t-40.5 19q-31 0 -31 -37h-103q0 60 31 98.5t91 38.5q34 0 62.5 -19t40.5 -19q31 0 31 36z" unicode="Ñ" glyph-name="Ntilde"/>
<glyph d="M409 0h-169q-182 0 -182 158v368q0 158 182 158h169q182 0 182 -158v-368q0 -158 -182 -158zM260 131h130q33 0 47 13t14 41v316q0 28 -14 41t-47 13h-130q-33 0 -47 -13t-14 -41v-316q0 -28 14 -41t47 -13zM278 741l-101 128h135l101 -128h-135z" unicode="Ò" glyph-name="Ograve"/>
<glyph d="M409 0h-169q-182 0 -182 158v368q0 158 182 158h169q182 0 182 -158v-368q0 -158 -182 -158zM260 131h130q33 0 47 13t14 41v316q0 28 -14 41t-47 13h-130q-33 0 -47 -13t-14 -41v-316q0 -28 14 -41t47 -13zM473 869l-101 -128h-135l101 128h135z" unicode="Ó" glyph-name="Oacute"/>
<glyph d="M409 0h-169q-182 0 -182 158v368q0 158 182 158h169q182 0 182 -158v-368q0 -158 -182 -158zM260 131h130q33 0 47 13t14 41v316q0 28 -14 41t-47 13h-130q-33 0 -47 -13t-14 -41v-316q0 -28 14 -41t47 -13zM159 737l110 136h112l110 -136h-126l-35 53h-10l-36 -53h-125z " unicode="Ô" glyph-name="Ocircumflex"/>
<glyph d="M409 0h-169q-182 0 -182 158v368q0 158 182 158h169q182 0 182 -158v-368q0 -158 -182 -158zM260 131h130q33 0 47 13t14 41v316q0 28 -14 41t-47 13h-130q-33 0 -47 -13t-14 -41v-316q0 -28 14 -41t47 -13zM401 874h103q0 -59 -31 -97.5t-91 -38.5q-34 0 -62.5 19 t-40.5 19q-31 0 -31 -37h-103q0 60 31 98.5t91 38.5q34 0 62.5 -19t40.5 -19q31 0 31 36z" unicode="Õ" glyph-name="Otilde"/>
<glyph d="M409 0h-169q-182 0 -182 158v368q0 158 182 158h169q182 0 182 -158v-368q0 -158 -182 -158zM260 131h130q33 0 47 13t14 41v316q0 28 -14 41t-47 13h-130q-33 0 -47 -13t-14 -41v-316q0 -28 14 -41t47 -13zM288 750h-126v110h126v-110zM488 750h-127v110h127v-110z" unicode="Ö" glyph-name="Odieresis"/>
<glyph d="M105 182l131 130l-131 131l89 89l130 -131l131 131l89 -89l-131 -131l131 -130l-89 -89l-131 131l-130 -131z" unicode="×" glyph-name="multiply"/>
<glyph d="M6 -82l82 135q-37 40 -37 105v368q0 158 182 158h184q23 0 45 -5l53 87h129l-82 -136q37 -42 37 -104v-368q0 -158 -182 -158h-184q-30 0 -46 4l-52 -86h-129zM195 504v-214q0 -37 2 -50l196 317q-11 2 -42 2h-95q-33 0 -47 -13t-14 -42zM394 129q33 0 46.5 13t13.5 41 v231q0 22 -2 29l-193 -312q13 -2 51 -2h84z" unicode="Ø" glyph-name="Oslash"/>
<glyph d="M581 684v-526q0 -158 -182 -158h-149q-182 0 -182 158v526h141v-499q0 -28 14 -41t47 -13h110q33 0 47 13t14 41v499h140zM278 741l-101 128h135l101 -128h-135z" unicode="Ù" glyph-name="Ugrave"/>
<glyph d="M581 684v-526q0 -158 -182 -158h-149q-182 0 -182 158v526h141v-499q0 -28 14 -41t47 -13h110q33 0 47 13t14 41v499h140zM473 869l-101 -128h-135l101 128h135z" unicode="Ú" glyph-name="Uacute"/>
<glyph d="M581 684v-526q0 -158 -182 -158h-149q-182 0 -182 158v526h141v-499q0 -28 14 -41t47 -13h110q33 0 47 13t14 41v499h140zM159 737l110 136h112l110 -136h-126l-35 53h-10l-36 -53h-125z" unicode="Û" glyph-name="Ucircumflex"/>
<glyph d="M581 684v-526q0 -158 -182 -158h-149q-182 0 -182 158v526h141v-499q0 -28 14 -41t47 -13h110q33 0 47 13t14 41v499h140zM288 750h-126v110h126v-110zM488 750h-127v110h127v-110z" unicode="Ü" glyph-name="Udieresis"/>
<glyph d="M598 490l-203 -196v-294h-141v294l-205 196v194h141v-143l134 -135l134 135v143h140v-194zM473 869l-101 -128h-135l101 128h135z" unicode="Ý" glyph-name="Yacute"/>
<glyph d="M589 416v-111q0 -158 -182 -158h-168v-147h-141v684h141v-110h168q182 0 182 -158zM448 336v55q0 28 -14 41t-47 13h-148v-171h148q61 0 61 62z" unicode="Þ" glyph-name="Thorn"/>
<glyph d="M612 228v-70q0 -158 -182 -158h-93l-35 131h109q33 0 47 13t14 41v44q0 28 -14 41t-47 13h-80v125h80q61 0 61 57v36q0 28 -14 41t-47 13h-110q-33 0 -47 -13t-14 -41v-501h-141v283h-62v125h62v118q0 158 182 158h149q182 0 182 -158v-62q0 -94 -82 -118 q42 -12 62 -44.5t20 -73.5z" unicode="ß" glyph-name="germandbls"/>
<glyph d="M550 0h-133v39h-3q-41 -39 -128 -39h-50q-157 0 -157 150v42q0 150 157 150h42q96 0 136 -37h3v62q0 32 -15 46.5t-49 14.5h-67q-29 0 -40.5 -10.5t-11.5 -33.5v-13l-133 32v12q0 59 45.5 93t128.5 34h89q88 0 137 -44t49 -127v-371zM329 232h-59q-58 0 -58 -49v-18 q0 -26 14 -37.5t44 -11.5h59q88 0 88 47v22q0 47 -88 47zM278 604l-101 128h135l101 -128h-135z" unicode="à" glyph-name="agrave"/>
<glyph d="M550 0h-133v39h-3q-41 -39 -128 -39h-50q-157 0 -157 150v42q0 150 157 150h42q96 0 136 -37h3v62q0 32 -15 46.5t-49 14.5h-67q-29 0 -40.5 -10.5t-11.5 -33.5v-13l-133 32v12q0 59 45.5 93t128.5 34h89q88 0 137 -44t49 -127v-371zM329 232h-59q-58 0 -58 -49v-18 q0 -26 14 -37.5t44 -11.5h59q88 0 88 47v22q0 47 -88 47zM473 732l-101 -128h-135l101 128h135z" unicode="á" glyph-name="aacute"/>
<glyph d="M550 0h-133v39h-3q-41 -39 -128 -39h-50q-157 0 -157 150v42q0 150 157 150h42q96 0 136 -37h3v62q0 32 -15 46.5t-49 14.5h-67q-29 0 -40.5 -10.5t-11.5 -33.5v-13l-133 32v12q0 59 45.5 93t128.5 34h89q88 0 137 -44t49 -127v-371zM329 232h-59q-58 0 -58 -49v-18 q0 -26 14 -37.5t44 -11.5h59q88 0 88 47v22q0 47 -88 47zM159 600l110 136h112l110 -136h-126l-35 53h-10l-36 -53h-125z" unicode="â" glyph-name="acircumflex"/>
<glyph d="M550 0h-133v39h-3q-41 -39 -128 -39h-50q-157 0 -157 150v42q0 150 157 150h42q96 0 136 -37h3v62q0 32 -15 46.5t-49 14.5h-67q-29 0 -40.5 -10.5t-11.5 -33.5v-13l-133 32v12q0 59 45.5 93t128.5 34h89q88 0 137 -44t49 -127v-371zM329 232h-59q-58 0 -58 -49v-18 q0 -26 14 -37.5t44 -11.5h59q88 0 88 47v22q0 47 -88 47zM401 735h103q0 -59 -31 -97.5t-91 -38.5q-34 0 -62.5 19t-40.5 19q-31 0 -31 -37h-103q0 60 31 98.5t91 38.5q34 0 62.5 -19t40.5 -19q31 0 31 36z" unicode="ã" glyph-name="atilde"/>
<glyph d="M550 0h-133v39h-3q-41 -39 -128 -39h-50q-157 0 -157 150v42q0 150 157 150h42q96 0 136 -37h3v62q0 32 -15 46.5t-49 14.5h-67q-29 0 -40.5 -10.5t-11.5 -33.5v-13l-133 32v12q0 59 45.5 93t128.5 34h89q88 0 137 -44t49 -127v-371zM329 232h-59q-58 0 -58 -49v-18 q0 -26 14 -37.5t44 -11.5h59q88 0 88 47v22q0 47 -88 47zM288 613h-126v110h126v-110zM488 613h-127v110h127v-110z" unicode="ä" glyph-name="adieresis"/>
<glyph d="M550 0h-133v39h-3q-41 -39 -128 -39h-50q-157 0 -157 150v42q0 150 157 150h42q96 0 136 -37h3v62q0 32 -15 46.5t-49 14.5h-67q-29 0 -40.5 -10.5t-11.5 -33.5v-13l-133 32v12q0 59 45.5 93t128.5 34h89q88 0 137 -44t49 -127v-371zM329 232h-59q-58 0 -58 -49v-18 q0 -26 14 -37.5t44 -11.5h59q88 0 88 47v22q0 47 -88 47zM288 685q0 -16 10 -26t26 -10t26 10t10 26q0 17 -10 26.5t-26 9.5t-26 -10t-10 -26zM219 685q0 45 30 74t75 29t75.5 -29t30.5 -74t-30.5 -74t-75.5 -29t-75 29t-30 74z" unicode="å" glyph-name="aring"/>
<glyph d="M267 168v64h-71q-30 0 -42 -10.5t-12 -34.5v-24q0 -27 9.5 -37t39.5 -10h24q29 0 40.5 12t11.5 40zM263 342v36q0 28 -10.5 39t-43.5 11h-24q-26 0 -35.5 -9.5t-9.5 -32.5v-12l-115 33v8q0 127 139 127h54q84 0 110 -53h4q26 53 112 53h38q82 0 116.5 -44.5t34.5 -131.5 v-134h-233v-62q0 -30 9 -42t35 -12h33q27 0 36 11.5t9 39.5v15l111 -33v-5q0 -71 -28 -107.5t-108 -36.5h-50q-89 0 -115 53h-4q-26 -53 -110 -53h-48q-81 0 -116.5 35t-35.5 117v49q0 80 35.5 110.5t128.5 30.5h81zM400 376v-34h122v33q0 30 -9.5 41.5t-38.5 11.5h-22 q-29 0 -40.5 -12t-11.5 -40z" unicode="æ" glyph-name="ae"/>
<glyph d="M403 -28h-110v-17q0 -35 -38 -35h-57l-38 -90h119q68 0 96 27.5t28 83.5v31zM222 359v-174q0 -28 14 -41t47 -13h79q33 0 47 13t14 41v33l140 -40v-20q0 -158 -182 -158h-117q-182 0 -182 158v226q0 158 182 158h117q182 0 182 -158v-29l-140 -36v40q0 28 -14 41t-47 13 h-79q-33 0 -47 -13t-14 -41z" unicode="ç" glyph-name="ccedilla"/>
<glyph d="M557 374v-150h-336v-52q0 -29 14 -42.5t47 -13.5h78q34 0 49 11t15 36v25l133 -25v-22q0 -77 -49 -109t-141 -32h-97q-182 0 -182 158v226q0 158 182 158h105q87 0 134.5 -43t47.5 -125zM221 373v-42h203v40q0 30 -12 43.5t-49 13.5h-81q-37 0 -49 -13t-12 -42zM278 604 l-101 128h135l101 -128h-135z" unicode="è" glyph-name="egrave"/>
<glyph d="M557 374v-150h-336v-52q0 -29 14 -42.5t47 -13.5h78q34 0 49 11t15 36v25l133 -25v-22q0 -77 -49 -109t-141 -32h-97q-182 0 -182 158v226q0 158 182 158h105q87 0 134.5 -43t47.5 -125zM221 373v-42h203v40q0 30 -12 43.5t-49 13.5h-81q-37 0 -49 -13t-12 -42zM473 732 l-101 -128h-135l101 128h135z" unicode="é" glyph-name="eacute"/>
<glyph d="M557 374v-150h-336v-52q0 -29 14 -42.5t47 -13.5h78q34 0 49 11t15 36v25l133 -25v-22q0 -77 -49 -109t-141 -32h-97q-182 0 -182 158v226q0 158 182 158h105q87 0 134.5 -43t47.5 -125zM221 373v-42h203v40q0 30 -12 43.5t-49 13.5h-81q-37 0 -49 -13t-12 -42zM159 600 l110 136h112l110 -136h-126l-35 53h-10l-36 -53h-125z" unicode="ê" glyph-name="ecircumflex"/>
<glyph d="M557 374v-150h-336v-52q0 -29 14 -42.5t47 -13.5h78q34 0 49 11t15 36v25l133 -25v-22q0 -77 -49 -109t-141 -32h-97q-182 0 -182 158v226q0 158 182 158h105q87 0 134.5 -43t47.5 -125zM221 373v-42h203v40q0 30 -12 43.5t-49 13.5h-81q-37 0 -49 -13t-12 -42zM288 613 h-126v110h126v-110zM488 613h-127v110h127v-110z" unicode="ë" glyph-name="edieresis"/>
<glyph d="M68 0v131h202v282h-182v129h322v-411h172v-131h-514zM278 604l-101 128h135l101 -128h-135z" unicode="ì" glyph-name="igrave"/>
<glyph d="M68 0v131h202v282h-182v129h322v-411h172v-131h-514zM473 732l-101 -128h-135l101 128h135z" unicode="í" glyph-name="iacute"/>
<glyph d="M68 0v131h202v282h-182v129h322v-411h172v-131h-514zM159 600l110 136h112l110 -136h-126l-35 53h-10l-36 -53h-125z" unicode="î" glyph-name="icircumflex"/>
<glyph d="M68 0v131h202v282h-182v129h322v-411h172v-131h-514zM289 613h-126v110h126v-110zM489 613h-127v110h127v-110z" unicode="ï" glyph-name="idieresis"/>
<glyph d="M220 520l-52 98h118l-50 85h141l48 -85h84l48 -98h-84l69 -128q23 -44 23 -93v-141q0 -158 -182 -158h-116q-182 0 -182 158v141q0 158 182 158h73q19 0 34 -3l1 1l-39 65h-116zM286 131h78q33 0 46.5 13t13.5 42v91q0 29 -13.5 42t-46.5 13h-78q-33 0 -47 -13t-14 -42 v-92q0 -28 14 -41t47 -13z" unicode="ð" glyph-name="eth"/>
<glyph d="M570 0h-141v339q0 39 -16.5 56.5t-52.5 17.5h-45q-41 0 -68 -20.5t-27 -61.5v-331h-140v542h140v-47h3q38 47 129 47h62q156 0 156 -163v-379zM401 735h103q0 -59 -31 -97.5t-91 -38.5q-34 0 -62.5 19t-40.5 19q-31 0 -31 -37h-103q0 60 31 98.5t91 38.5q34 0 62.5 -19 t40.5 -19q31 0 31 36z" unicode="ñ" glyph-name="ntilde"/>
<glyph d="M386 0h-122q-182 0 -182 158v226q0 158 182 158h122q182 0 182 -158v-226q0 -158 -182 -158zM283 131h84q33 0 47 13t14 42v173q0 28 -14 41t-47 13h-84q-33 0 -47 -13t-14 -41v-174q0 -28 14 -41t47 -13zM278 604l-101 128h135l101 -128h-135z" unicode="ò" glyph-name="ograve"/>
<glyph d="M386 0h-122q-182 0 -182 158v226q0 158 182 158h122q182 0 182 -158v-226q0 -158 -182 -158zM283 131h84q33 0 47 13t14 42v173q0 28 -14 41t-47 13h-84q-33 0 -47 -13t-14 -41v-174q0 -28 14 -41t47 -13zM473 732l-101 -128h-135l101 128h135z" unicode="ó" glyph-name="oacute"/>
<glyph d="M386 0h-122q-182 0 -182 158v226q0 158 182 158h122q182 0 182 -158v-226q0 -158 -182 -158zM283 131h84q33 0 47 13t14 42v173q0 28 -14 41t-47 13h-84q-33 0 -47 -13t-14 -41v-174q0 -28 14 -41t47 -13zM159 600l110 136h112l110 -136h-126l-35 53h-10l-36 -53h-125z " unicode="ô" glyph-name="ocircumflex"/>
<glyph d="M386 0h-122q-182 0 -182 158v226q0 158 182 158h122q182 0 182 -158v-226q0 -158 -182 -158zM283 131h84q33 0 47 13t14 42v173q0 28 -14 41t-47 13h-84q-33 0 -47 -13t-14 -41v-174q0 -28 14 -41t47 -13zM401 735h103q0 -59 -31 -97.5t-91 -38.5q-34 0 -62.5 19 t-40.5 19q-31 0 -31 -37h-103q0 60 31 98.5t91 38.5q34 0 62.5 -19t40.5 -19q31 0 31 36z" unicode="õ" glyph-name="otilde"/>
<glyph d="M386 0h-122q-182 0 -182 158v226q0 158 182 158h122q182 0 182 -158v-226q0 -158 -182 -158zM283 131h84q33 0 47 13t14 42v173q0 28 -14 41t-47 13h-84q-33 0 -47 -13t-14 -41v-174q0 -28 14 -41t47 -13zM288 613h-126v110h126v-110zM488 613h-127v110h127v-110z" unicode="ö" glyph-name="odieresis"/>
<glyph d="M579 246h-509v129h509v-129zM402 440h-155v142h155v-142zM402 38h-155v143h155v-143z" unicode="÷" glyph-name="divide"/>
<glyph d="M4 -82l103 141q-34 36 -34 99v226q0 158 182 158h139q31 0 57 -7l66 89h129l-104 -142q34 -38 34 -98v-226q0 -158 -182 -158h-139q-34 0 -58 7l-64 -89h-129zM206 370v-125q0 -38 2 -43l165 220q-4 2 -36 2h-70q-33 0 -47 -13t-14 -41zM382 121q33 0 47 13t14 42v114 q0 44 -2 48l-162 -215q6 -2 42 -2h61z" unicode="ø" glyph-name="oslash"/>
<glyph d="M78 542h141v-336q0 -39 16 -57t53 -18h48q41 0 68 20.5t27 61.5v329h140v-542h-140v46h-3q-39 -46 -129 -46h-65q-156 0 -156 163v379zM278 604l-101 128h135l101 -128h-135z" unicode="ù" glyph-name="ugrave"/>
<glyph d="M78 542h141v-336q0 -39 16 -57t53 -18h48q41 0 68 20.5t27 61.5v329h140v-542h-140v46h-3q-39 -46 -129 -46h-65q-156 0 -156 163v379zM473 732l-101 -128h-135l101 128h135z" unicode="ú" glyph-name="uacute"/>
<glyph d="M78 542h141v-336q0 -39 16 -57t53 -18h48q41 0 68 20.5t27 61.5v329h140v-542h-140v46h-3q-39 -46 -129 -46h-65q-156 0 -156 163v379zM159 600l110 136h112l110 -136h-126l-35 53h-10l-36 -53h-125z" unicode="û" glyph-name="ucircumflex"/>
<glyph d="M78 542h141v-336q0 -39 16 -57t53 -18h48q41 0 68 20.5t27 61.5v329h140v-542h-140v46h-3q-39 -46 -129 -46h-65q-156 0 -156 163v379zM288 613h-126v110h126v-110zM488 613h-127v110h127v-110z" unicode="ü" glyph-name="udieresis"/>
<glyph d="M572 542h-140v-329q0 -41 -27 -61.5t-68 -20.5h-50q-37 0 -53 18t-16 57v336h-141v-379q0 -163 156 -163h67q90 0 129 46h3v-107q0 -28 -14 -41t-47 -13h-93q-33 0 -46.5 13t-13.5 41v24l-141 -36v-13q0 -154 181 -154h122q90 0 141 39t51 119v624zM473 732l-101 -128 h-135l101 128h135z" unicode="ý" glyph-name="yacute"/>
<glyph d="M387 413h-47q-41 0 -68 -20.5t-27 -61.5v-118q0 -41 27 -61.5t68 -20.5h47q37 0 53.5 18t16.5 57v132q0 39 -16.5 57t-53.5 18zM245 46v-216h-140v854h140v-189h3q38 47 129 47h65q155 0 155 -163v-216q0 -163 -155 -163h-65q-90 0 -129 46h-3z" unicode="þ" glyph-name="thorn"/>
<glyph d="M572 542h-140v-329q0 -41 -27 -61.5t-68 -20.5h-50q-37 0 -53 18t-16 57v336h-141v-379q0 -163 156 -163h67q90 0 129 46h3v-107q0 -28 -14 -41t-47 -13h-93q-33 0 -46.5 13t-13.5 41v24l-141 -36v-13q0 -154 181 -154h122q90 0 141 39t51 119v624zM288 613h-126v110h126 v-110zM488 613h-127v110h127v-110z" unicode="ÿ" glyph-name="ydieresis"/>
<glyph d="M397 684l212 -507v-177h-140v155l-13 31h-262l-13 -31v-155h-141v177l212 507h145zM322 523l-86 -212h177l-86 212h-5zM480 754h-310v100h310v-100z" unicode="Ā" glyph-name="Amacron"/>
<glyph d="M550 0h-133v39h-3q-41 -39 -128 -39h-50q-157 0 -157 150v42q0 150 157 150h42q96 0 136 -37h3v62q0 32 -15 46.5t-49 14.5h-67q-29 0 -40.5 -10.5t-11.5 -33.5v-13l-133 32v12q0 59 45.5 93t128.5 34h89q88 0 137 -44t49 -127v-371zM329 232h-59q-58 0 -58 -49v-18 q0 -26 14 -37.5t44 -11.5h59q88 0 88 47v22q0 47 -88 47zM480 618h-310v100h310v-100z" unicode="ā" glyph-name="amacron"/>
<glyph d="M563 0h-477v684h477v-129h-336v-141h274v-127h-274v-156h336v-131zM480 754h-310v100h310v-100z" unicode="Ē" glyph-name="Emacron"/>
<glyph d="M557 374v-150h-336v-52q0 -29 14 -42.5t47 -13.5h78q34 0 49 11t15 36v25l133 -25v-22q0 -77 -49 -109t-141 -32h-97q-182 0 -182 158v226q0 158 182 158h105q87 0 134.5 -43t47.5 -125zM221 373v-42h203v40q0 30 -12 43.5t-49 13.5h-81q-37 0 -49 -13t-12 -42zM480 618 h-310v100h310v-100z" unicode="ē" glyph-name="emacron"/>
<glyph d="M75 0v131h180v424h-170v129h479v-129h-169v-424h180v-131h-500zM401 874h103q0 -59 -31 -97.5t-91 -38.5q-34 0 -62.5 19t-40.5 19q-31 0 -31 -37h-103q0 60 31 98.5t91 38.5q34 0 62.5 -19t40.5 -19q31 0 31 36z" unicode="Ĩ" glyph-name="Itilde"/>
<glyph d="M68 0v131h202v282h-182v129h322v-411h172v-131h-514zM401 735h103q0 -59 -31 -97.5t-91 -38.5q-34 0 -62.5 19t-40.5 19q-31 0 -31 -37h-103q0 60 31 98.5t91 38.5q34 0 62.5 -19t40.5 -19q31 0 31 36z" unicode="ĩ" glyph-name="itilde"/>
<glyph d="M68 0v131h202v282h-182v129h322v-411h172v-131h-514zM480 618h-310v100h310v-100z" unicode="ī" glyph-name="imacron"/>
<glyph d="M68 0v131h202v282h-182v129h322v-411h172v-131h-514z" unicode="ı" glyph-name="dotlessi"/>
<glyph d="M409 0h-169q-182 0 -182 158v368q0 158 182 158h169q182 0 182 -158v-368q0 -158 -182 -158zM260 131h130q33 0 47 13t14 41v316q0 28 -14 41t-47 13h-130q-33 0 -47 -13t-14 -41v-316q0 -28 14 -41t47 -13zM480 754h-310v100h310v-100z" unicode="Ō" glyph-name="Omacron"/>
<glyph d="M386 0h-122q-182 0 -182 158v226q0 158 182 158h122q182 0 182 -158v-226q0 -158 -182 -158zM283 131h84q33 0 47 13t14 42v173q0 28 -14 41t-47 13h-84q-33 0 -47 -13t-14 -41v-174q0 -28 14 -41t47 -13zM480 618h-310v100h310v-100z" unicode="ō" glyph-name="omacron"/>
<glyph d="M633 0h-300v39h-3q-26 -39 -107 -39h-30q-82 0 -127.5 39.5t-45.5 118.5v368q0 79 45.5 118.5t127.5 39.5h30q81 0 107 -40h3v40h300v-129h-175v-141h128v-127h-128v-156h175v-131zM221 131h29q75 0 75 91v240q0 93 -71 93h-33q-33 0 -47 -13t-14 -41v-316q0 -28 14 -41 t47 -13z" unicode="Œ" glyph-name="OE"/>
<glyph d="M187 116h21q58 0 58 63v186q0 63 -58 63h-21q-30 0 -41.5 -12t-11.5 -40v-208q0 -28 11.5 -40t41.5 -12zM328 53q-26 -53 -114 -53h-39q-86 0 -121.5 35t-35.5 119v230q0 84 35 121t120 37h41q88 0 114 -53h4q26 53 112 53h38q82 0 116.5 -44.5t34.5 -131.5v-134h-233 v-62q0 -30 9 -42t35 -12h33q27 0 36 11.5t9 39.5v15l111 -33v-5q0 -71 -28 -107.5t-108 -36.5h-50q-89 0 -115 53h-4zM400 376v-34h122v33q0 30 -9.5 41.5t-38.5 11.5h-22q-29 0 -40.5 -12t-11.5 -40z" unicode="œ" glyph-name="oe"/>
<glyph d="M214 212v-27q0 -28 14 -41t47 -13h100q33 0 47 13t14 41v45q0 28 -14 41t-47 13h-127q-175 0 -175 163v75q0 81 50.5 121.5t139.5 40.5h131q182 0 182 -158v-14l-140 -36v25q0 28 -14 41t-47 13h-100q-33 0 -47 -13t-14 -41v-36q0 -28 14 -41t47 -13h126q175 0 175 -161 v-88q0 -82 -50 -122t-139 -40h-132q-182 0 -182 158v18zM269 737l-110 136h125l36 -54h9l36 54h126l-110 -136h-112z" unicode="Š" glyph-name="Scaron"/>
<glyph d="M228 180v-21q0 -24 11.5 -33.5t46.5 -9.5h77q32 0 45 10t13 34v15q0 25 -14.5 36t-54.5 11h-85q-93 0 -132.5 33t-39.5 111v28q0 148 185 148h103q93 0 132 -33t39 -95v-10l-133 -34v16q0 23 -11 32.5t-46 9.5h-78q-30 0 -44 -9t-14 -32v-12q0 -24 15 -33.5t55 -9.5h77 q93 0 136 -37.5t43 -115.5v-31q0 -148 -184 -148h-103q-94 0 -133 33.5t-39 95.5v21zM269 600l-110 136h125l36 -54h9l36 54h126l-110 -136h-112z" unicode="š" glyph-name="scaron"/>
<glyph d="M581 684v-526q0 -158 -182 -158h-149q-182 0 -182 158v526h141v-499q0 -28 14 -41t47 -13h110q33 0 47 13t14 41v499h140zM401 874h103q0 -59 -31 -97.5t-91 -38.5q-34 0 -62.5 19t-40.5 19q-31 0 -31 -37h-103q0 60 31 98.5t91 38.5q34 0 62.5 -19t40.5 -19q31 0 31 36z " unicode="Ũ" glyph-name="Utilde"/>
<glyph d="M78 542h141v-336q0 -39 16 -57t53 -18h48q41 0 68 20.5t27 61.5v329h140v-542h-140v46h-3q-39 -46 -129 -46h-65q-156 0 -156 163v379zM401 735h103q0 -59 -31 -97.5t-91 -38.5q-34 0 -62.5 19t-40.5 19q-31 0 -31 -37h-103q0 60 31 98.5t91 38.5q34 0 62.5 -19t40.5 -19 q31 0 31 36z" unicode="ũ" glyph-name="utilde"/>
<glyph d="M581 684v-526q0 -158 -182 -158h-149q-182 0 -182 158v526h141v-499q0 -28 14 -41t47 -13h110q33 0 47 13t14 41v499h140zM480 754h-310v100h310v-100z" unicode="Ū" glyph-name="Umacron"/>
<glyph d="M78 542h141v-336q0 -39 16 -57t53 -18h48q41 0 68 20.5t27 61.5v329h140v-542h-140v46h-3q-39 -46 -129 -46h-65q-156 0 -156 163v379zM480 618h-310v100h310v-100z" unicode="ū" glyph-name="umacron"/>
<glyph d="M599 490l-203 -196v-294h-141v294l-205 196v194h141v-143l134 -135l134 135v143h140v-194zM288 750h-126v110h126v-110zM488 750h-127v110h127v-110z" unicode="Ÿ" glyph-name="Ydieresis"/>
<glyph d="M584 0h-519v123l334 432h-319v129h495v-123l-335 -430h344v-131zM269 737l-110 136h125l36 -54h9l36 54h126l-110 -136h-112z" unicode="Ž" glyph-name="Zcaron"/>
<glyph d="M570 0h-491v114l293 301v2h-277v125h466v-114l-290 -299v-2h299v-127zM269 600l-110 136h125l36 -54h9l36 54h126l-110 -136h-112z" unicode="ž" glyph-name="zcaron"/>
<glyph d="M537 298h-163v-310q0 -82 -42 -120t-129 -38h-152l32 132h90q33 0 47 13t14 42v281h-139v126h139v102q0 158 182 158h183l-32 -129h-132q-33 0 -47 -13t-14 -41v-77h163v-126z" unicode="ƒ" glyph-name="florin"/>
<glyph d="M159 619l110 136h112l110 -136h-126l-35 53h-10l-36 -53h-125z" unicode="ˆ" glyph-name="circumflex"/>
<glyph d="M269 619l-110 136h125l36 -54h9l36 54h126l-110 -136h-112z" unicode="ˇ" glyph-name="caron"/>
<glyph d="M288 688q0 -16 10 -26t26 -10t26 10t10 26t-10 26t-26 10t-26 -10t-10 -26zM219 688q0 45 30 74t75 29t75.5 -29t30.5 -74t-30.5 -74t-75.5 -29t-75 29t-30 74z" unicode="˚" glyph-name="ring"/>
<glyph d="M401 754h103q0 -59 -31 -97.5t-91 -38.5q-34 0 -62.5 19t-40.5 19q-31 0 -31 -37h-103q0 60 31 98.5t91 38.5q34 0 62.5 -19t40.5 -19q31 0 31 36z" unicode="˜" glyph-name="tilde"/>
<glyph d="M542 246h-434v129h434v-129z" unicode="–" glyph-name="endash"/>
<glyph d="M576 246h-502v129h502v-129z" unicode="—" glyph-name="emdash"/>
<glyph d="M395 684v-146h-155v157q0 58 29.5 93.5t87.5 35.5h28l25 -62h-26q-28 0 -45 -18.5t-17 -46.5v-13h73z" unicode="‘" glyph-name="quoteleft"/>
<glyph d="M247 612v146h155v-157q0 -58 -29.5 -93.5t-87.5 -35.5h-28l-25 62h26q28 0 45 18.5t17 46.5v13h-73z" unicode="’" glyph-name="quoteright"/>
<glyph d="M247 0v146h155v-157q0 -58 -29.5 -93.5t-87.5 -35.5h-28l-25 62h26q28 0 45 18.5t17 46.5v13h-73z" unicode="‚" glyph-name="quotesinglbase"/>
<glyph d="M301 684v-146h-155v157q0 58 29.5 93.5t87.5 35.5h28l25 -62h-26q-28 0 -45 -18.5t-17 -46.5v-13h73zM504 684v-146h-155v157q0 58 29.5 93.5t87.5 35.5h28l25 -62h-26q-28 0 -45 -18.5t-17 -46.5v-13h73z" unicode="“" glyph-name="quotedblleft"/>
<glyph d="M145 612v146h155v-157q0 -58 -29.5 -93.5t-87.5 -35.5h-28l-25 62h26q28 0 45 18.5t17 46.5v13h-73zM348 612v146h155v-157q0 -58 -29.5 -93.5t-87.5 -35.5h-28l-25 62h26q28 0 45 18.5t17 46.5v13h-73z" unicode="”" glyph-name="quotedblright"/>
<glyph d="M145 0v146h155v-157q0 -58 -29.5 -93.5t-87.5 -35.5h-28l-25 62h26q28 0 45 18.5t17 46.5v13h-73zM348 0v146h155v-157q0 -58 -29.5 -93.5t-87.5 -35.5h-28l-25 62h26q28 0 45 18.5t17 46.5v13h-73z" unicode="„" glyph-name="quotedblbase"/>
<glyph d="M594 466h-199v-466h-140v466h-199v129h199v171h140v-171h199v-129z" unicode="†" glyph-name="dagger"/>
<glyph d="M395 334h199v-129h-199v-205h-140v205h-199v129h199v132h-199v129h199v171h140v-171h199v-129h-199v-132z" unicode="‡" glyph-name="daggerdbl"/>
<glyph d="M436 374v-112q0 -28 -12 -40.5t-40 -12.5h-118q-28 0 -40 12.5t-12 40.5v112q0 28 12 40.5t40 12.5h118q28 0 40 -12.5t12 -40.5z" unicode="•" glyph-name="bullet"/>
<glyph d="M171 0h-155v146h155v-146zM402 0h-155v146h155v-146zM633 0h-155v146h155v-146z" unicode="…" glyph-name="ellipsis"/>
<glyph d="M0 223v90l366 152v-90zM545 -48h-61q-48 0 -76.5 27t-28.5 69v114q0 43 28.5 70t76.5 27h61q48 0 76.5 -27t28.5 -70v-114q0 -42 -28.5 -69t-76.5 -27zM500 39h29q30 0 30 29v76q0 29 -30 29h-29q-29 0 -29 -29v-76q0 -29 29 -29zM236 -48h-61q-48 0 -76.5 27t-28.5 69 v114q0 43 28.5 70t76.5 27h61q48 0 76.5 -27t28.5 -70v-114q0 -42 -28.5 -69t-76.5 -27zM191 39h29q30 0 30 29v76q0 29 -30 29h-29q-29 0 -29 -29v-76q0 -29 29 -29zM166 425h-61q-48 0 -76.5 27t-28.5 70v113q0 43 28.5 70t76.5 27h61q48 0 76.5 -27t28.5 -70v-113 q0 -43 -28.5 -70t-76.5 -27zM121 512h29q30 0 30 30v76q0 29 -30 29h-29q-29 0 -29 -29v-76q0 -30 29 -30z" unicode="‰" glyph-name="perthousand"/>
<glyph d="M193 518h140l128 -218l-128 -218h-140l124 218z" unicode="‹" glyph-name="guilsinglleft"/>
<glyph d="M456 82h-140l-127 218l127 218h140l-123 -218z" unicode="›" glyph-name="guilsinglright"/>
<glyph d="M38 17l512 710l67 -52l-513 -709z" unicode="⁄" glyph-name="fraction"/>
<glyph d="M20 364v82h77v80q0 158 182 158h149q182 0 182 -158v-22l-141 -36v33q0 28 -13.5 41t-46.5 13h-111q-33 0 -46.5 -13t-13.5 -41v-55h166l-21 -82h-145v-42h134l-21 -83h-113v-54q0 -28 13.5 -41t46.5 -13h111q33 0 46.5 13t13.5 41v34l141 -39v-22q0 -158 -182 -158h-149 q-182 0 -182 158v81h-77v83h77v42h-77z" unicode="€" glyph-name="Euro"/>
<glyph d="M644 474h-97v199h-5l-60 -107h-29l-60 107h-5v-199h-97v268h-81v-268h-97v268h-106v100h386l73 -122h4l72 122h102v-368z" unicode="™" glyph-name="trademark"/>
<glyph d="M564 246h-479v129h479v-129z" unicode="−" glyph-name="minus"/>
<glyph d="M405 542l216 -542h-156l-42 111h-197l-42 -111h-155l216 542h160zM322 399l-65 -178h136l-66 178h-5z" unicode="" glyph-name="A.scalt1"/>
<glyph d="M598 137l-211 405h-124l-211 -405v-137h137v89l13 32h246l13 -32v-89h137v137zM244 239l80 156h2l79 -156h-161zM480 618h-310v100h310v-100z" unicode="" glyph-name="Amacron.sc"/>
<glyph d="M547 0h-445v542h445v-118h-308v-92h247v-110h-247v-101h308v-121zM480 618h-310v100h310v-100z" unicode="" glyph-name="Emacron.sc"/>
<glyph d="M109 0v131h145v282h-133v129h407v-129h-134v-282h146v-131h-431zM480 618h-310v100h310v-100z" unicode="" glyph-name="Imacron.sc"/>
<glyph d="M399 0h-149q-87 0 -129.5 35.5t-42.5 116.5v238q0 81 42.5 116.5t129.5 35.5h149q88 0 130 -35.5t42 -116.5v-238q0 -81 -42 -116.5t-130 -35.5zM276 131h98q31 0 44 12t13 40v178q0 28 -13 40t-44 12h-98q-31 0 -44 -12t-13 -40v-178q0 -28 13 -40t44 -12zM480 618h-310 v100h310v-100z" unicode="" glyph-name="Omacron.sc"/>
<glyph d="M570 542v-390q0 -81 -42.5 -116.5t-129.5 -35.5h-146q-88 0 -130 35.5t-42 116.5v390h140v-359q0 -28 13.5 -40t44.5 -12h95q31 0 43.5 12t12.5 40v359h141zM480 618h-310v100h310v-100z" unicode="" glyph-name="Umacron.sc"/>
<glyph d="M228 180v-21q0 -24 11.5 -33.5t46.5 -9.5h77q32 0 45 10t13 34v15q0 25 -14.5 36t-54.5 11h-85q-93 0 -132.5 33t-39.5 111v28q0 148 185 148h103q93 0 132 -33t39 -95v-10l-133 -36v18q0 23 -11 32.5t-46 9.5h-78q-30 0 -44 -9t-14 -32v-12q0 -24 15 -33.5t55 -9.5h77 q93 0 136 -37.5t43 -115.5v-31q0 -148 -184 -148h-103q-94 0 -133 33.5t-39 95.5v21zM269 600l-110 136h125l36 -54h9l36 54h126l-110 -136h-112z" unicode="" glyph-name="Scaron.sc"/>
<glyph d="M561 0h-473v118l285 293v2h-269v129h448v-117l-283 -292v-2h292v-131zM269 600l-110 136h125l36 -54h9l36 54h126l-110 -136h-112z" unicode="" glyph-name="Zcaron.sc"/>
<glyph d="M387 542l211 -405v-137h-137v89l-13 32h-246l-13 -32v-89h-137v137l211 405h124zM324 395l-80 -156h161l-79 156h-2z" unicode="" glyph-name="A.sc"/>
<glyph d="M94 0v542h290q89 0 130.5 -29.5t41.5 -104.5v-23q0 -83 -65 -109q36 -12 50.5 -37.5t14.5 -71.5v-28q0 -78 -41 -108.5t-131 -30.5h-290zM227 326h151q25 0 35 9.5t10 30.5v24q0 21 -10 30.5t-35 9.5h-151v-104zM227 114h151q25 0 35 9.5t10 30.5v30q0 21 -10 30.5 t-35 9.5h-151v-110z" unicode="" glyph-name="B.sc"/>
<glyph d="M570 183v-31q0 -81 -42.5 -116.5t-129.5 -35.5h-146q-88 0 -130 35.5t-42 116.5v238q0 81 42 116.5t130 35.5h146q87 0 129.5 -35.5t42.5 -116.5v-24l-141 -40v35q0 28 -12.5 40t-43.5 12h-96q-31 0 -44 -12t-13 -40v-178q0 -28 13 -40t44 -12h96q31 0 43.5 12t12.5 40 v44z" unicode="" glyph-name="C.sc"/>
<glyph d="M577 390v-238q0 -81 -42 -116.5t-130 -35.5h-318v542h319q87 0 129 -35.5t42 -116.5zM437 183v178q0 28 -13 40t-44 12h-152v-282h152q31 0 44 12t13 40z" unicode="" glyph-name="D.sc"/>
<glyph d="M547 0h-445v542h445v-118h-308v-92h247v-110h-247v-101h308v-121z" unicode="" glyph-name="E.sc"/>
<glyph d="M562 413h-312v-113h251v-123h-251v-177h-140v542h452v-129z" unicode="" glyph-name="F.sc"/>
<glyph d="M568 311v-148q0 -163 -172 -163h-143q-87 0 -129.5 35.5t-42.5 116.5v238q0 81 42.5 116.5t129.5 35.5h143q172 0 172 -144v-14l-137 -34v25q0 46 -52 46h-101q-30 0 -43 -12.5t-13 -39.5v-194q0 -27 13 -39.5t43 -12.5h113q51 0 51 46v47h-98v95h224z" unicode="" glyph-name="G.sc"/>
<glyph d="M566 0h-140v213h-202v-213h-141v542h141v-202h202v202h140v-542z" unicode="" glyph-name="H.sc"/>
<glyph d="M109 0v131h145v282h-133v129h407v-129h-134v-282h146v-131h-431z" unicode="" glyph-name="I.sc"/>
<glyph d="M147 413v129h413v-390q0 -81 -42.5 -116.5t-129.5 -35.5h-124q-87 0 -129.5 35.5t-42.5 116.5v50l141 40v-59q0 -28 12.5 -40t43.5 -12h74q31 0 43.5 12t12.5 40v230h-272z" unicode="" glyph-name="J.sc"/>
<glyph d="M566 0h-137v110l-126 123l-79 -75v-158h-141v542h141v-208h4l204 208h177l-218 -212l175 -167v-163z" unicode="" glyph-name="K.sc"/>
<glyph d="M569 0h-436v542h140v-411h296v-131z" unicode="" glyph-name="L.sc"/>
<glyph d="M600 0h-137v292h-8l-92 -197h-76l-93 197h-8v-292h-136v542h137l137 -264h2l137 264h137v-542z" unicode="" glyph-name="M.sc"/>
<glyph d="M576 0h-136l-222 323h-4v-323h-141v542h142l216 -320h5v320h140v-542z" unicode="" glyph-name="N.sc"/>
<glyph d="M399 0h-149q-87 0 -129.5 35.5t-42.5 116.5v238q0 81 42.5 116.5t129.5 35.5h149q88 0 130 -35.5t42 -116.5v-238q0 -81 -42 -116.5t-130 -35.5zM276 131h98q31 0 44 12t13 40v178q0 28 -13 40t-44 12h-98q-31 0 -44 -12t-13 -40v-178q0 -28 13 -40t44 -12z" unicode="" glyph-name="O.sc"/>
<glyph d="M569 390v-85q0 -81 -42.5 -118t-129.5 -37h-147v-150h-140v542h287q87 0 129.5 -35.5t42.5 -116.5zM428 325v40q0 27 -11 37.5t-42 10.5h-125v-137h125q31 0 42 10.5t11 38.5z" unicode="" glyph-name="P.sc"/>
<glyph d="M507 32l99 -108h-158l-66 76h-135q-87 0 -129.5 35.5t-42.5 116.5v238q0 81 42.5 116.5t129.5 35.5h149q87 0 129.5 -35.5t42.5 -116.5v-235q0 -91 -61 -123zM272 131h99q30 0 43 12t13 40v178q0 28 -12.5 40t-43.5 12h-99q-31 0 -43.5 -12t-12.5 -40v-178 q0 -28 12.5 -40t43.5 -12z" unicode="" glyph-name="Q.sc"/>
<glyph d="M554 0h-141v91l-66 93h-111v-184h-140v542h286q87 0 129.5 -35.5t42.5 -116.5v-58q0 -89 -74 -123l74 -101v-108zM236 300h124q29 0 41 9t12 39v22q0 28 -11 38t-42 10h-124v-118z" unicode="" glyph-name="R.sc"/>
<glyph d="M228 180v-21q0 -24 11.5 -33.5t46.5 -9.5h77q32 0 45 10t13 34v15q0 25 -14.5 36t-54.5 11h-85q-93 0 -132.5 33t-39.5 111v28q0 148 185 148h103q93 0 132 -33t39 -95v-10l-133 -36v18q0 23 -11 32.5t-46 9.5h-78q-30 0 -44 -9t-14 -32v-12q0 -24 15 -33.5t55 -9.5h77 q93 0 136 -37.5t43 -115.5v-31q0 -148 -184 -148h-103q-94 0 -133 33.5t-39 95.5v21z" unicode="" glyph-name="S.sc"/>
<glyph d="M586 413h-191v-413h-140v413h-191v129h522v-129z" unicode="" glyph-name="T.sc"/>
<glyph d="M570 542v-390q0 -81 -42.5 -116.5t-129.5 -35.5h-146q-88 0 -130 35.5t-42 116.5v390h140v-359q0 -28 13.5 -40t44.5 -12h95q31 0 43.5 12t12.5 40v359h141z" unicode="" glyph-name="U.sc"/>
<glyph d="M580 352l-175 -352h-160l-176 352v190h141v-167l113 -231h4l113 231v167h140v-190z" unicode="" glyph-name="V.sc"/>
<glyph d="M285 507h79l82 -284h5l37 155v164h133v-174l-106 -368h-119l-69 240h-5l-69 -240h-119l-105 368v174h133v-164l36 -155h6z" unicode="" glyph-name="W.sc"/>
<glyph d="M325 361l89 82v99h140v-139l-136 -118l155 -136v-149h-140v106l-108 97l-108 -97v-106h-140v149l155 136l-137 118v139h141v-99z" unicode="" glyph-name="X.sc"/>
<glyph d="M574 355l-179 -166v-189h-140v189l-179 166v187h141v-141l108 -104l108 104v141h141v-187z" unicode="" glyph-name="Y.sc"/>
<glyph d="M561 0h-473v118l285 293v2h-269v129h448v-117l-283 -292v-2h292v-131z" unicode="" glyph-name="Z.sc"/>
<glyph d="M387 542l211 -405v-137h-137v89l-13 32h-246l-13 -32v-89h-137v137l211 405h124zM324 395l-80 -156h161l-79 156h-2zM278 604l-101 128h135l101 -128h-135z" unicode="" glyph-name="Agrave.sc"/>
<glyph d="M598 137l-211 405h-124l-211 -405v-137h137v89l13 32h246l13 -32v-89h137v137zM244 239l80 156h2l79 -156h-161zM473 732l-101 -128h-135l101 128h135z" unicode="" glyph-name="Aacute.sc"/>
<glyph d="M387 542l211 -405v-137h-137v89l-13 32h-246l-13 -32v-89h-137v137l211 405h124zM324 395l-80 -156h161l-79 156h-2zM159 600l110 136h112l110 -136h-126l-35 53h-10l-36 -53h-125z" unicode="" glyph-name="Acircumflex.sc"/>
<glyph d="M598 137l-211 405h-124l-211 -405v-137h137v89l13 32h246l13 -32v-89h137v137zM244 239l80 156h2l79 -156h-161zM401 735h103q0 -59 -31 -97.5t-91 -38.5q-34 0 -62.5 19t-40.5 19q-31 0 -31 -37h-103q0 60 31 98.5t91 38.5q34 0 62.5 -19t40.5 -19q31 0 31 36z" unicode="" glyph-name="Atilde.sc"/>
<glyph d="M598 137l-211 405h-124l-211 -405v-137h137v89l13 32h246l13 -32v-89h137v137zM244 239l80 156h2l79 -156h-161zM288 613h-126v110h126v-110zM488 613h-127v110h127v-110z" unicode="" glyph-name="Adieresis.sc"/>
<glyph d="M598 137l-211 405h-124l-211 -405v-137h137v89l13 32h246l13 -32v-89h137v137zM244 239l80 156h2l79 -156h-161zM288 685q0 -16 10 -26t26 -10t26 10t10 26q0 17 -10 26.5t-26 9.5t-26 -10t-10 -26zM219 685q0 45 30 74t75 29t75.5 -29t30.5 -74t-30.5 -74t-75.5 -29 t-75 29t-30 74z" unicode="" glyph-name="Aring.sc"/>
<glyph d="M403 -28h-110v-17q0 -35 -38 -35h-57l-38 -90h119q68 0 96 27.5t28 83.5v31zM570 183v-31q0 -81 -42.5 -116.5t-129.5 -35.5h-146q-88 0 -130 35.5t-42 116.5v238q0 81 42 116.5t130 35.5h146q87 0 129.5 -35.5t42.5 -116.5v-24l-141 -40v35q0 28 -12.5 40t-43.5 12h-96 q-31 0 -44 -12t-13 -40v-178q0 -28 13 -40t44 -12h96q31 0 43.5 12t12.5 40v44z" unicode="" glyph-name="Ccedilla.sc"/>
<glyph d="M547 0h-445v542h445v-118h-308v-92h247v-110h-247v-101h308v-121zM278 604l-101 128h135l101 -128h-135z" unicode="" glyph-name="Egrave.sc"/>
<glyph d="M547 0h-445v542h445v-118h-308v-92h247v-110h-247v-101h308v-121zM473 732l-101 -128h-135l101 128h135z" unicode="" glyph-name="Eacute.sc"/>
<glyph d="M547 0h-445v542h445v-118h-308v-92h247v-110h-247v-101h308v-121zM159 600l110 136h112l110 -136h-126l-35 53h-10l-36 -53h-125z" unicode="" glyph-name="Ecircumflex.sc"/>
<glyph d="M547 0h-445v542h445v-118h-308v-92h247v-110h-247v-101h308v-121zM288 613h-126v110h126v-110zM488 613h-127v110h127v-110z" unicode="" glyph-name="Edieresis.sc"/>
<glyph d="M109 0v131h145v282h-133v129h407v-129h-134v-282h146v-131h-431zM278 604l-101 128h135l101 -128h-135z" unicode="" glyph-name="Igrave.sc"/>
<glyph d="M109 0v131h145v282h-133v129h407v-129h-134v-282h146v-131h-431zM473 732l-101 -128h-135l101 128h135z" unicode="" glyph-name="Iacute.sc"/>
<glyph d="M109 0v131h145v282h-133v129h407v-129h-134v-282h146v-131h-431zM159 600l110 136h112l110 -136h-126l-35 53h-10l-36 -53h-125z" unicode="" glyph-name="Icircumflex.sc"/>
<glyph d="M109 0v131h145v282h-133v129h407v-129h-134v-282h146v-131h-431zM288 613h-126v110h126v-110zM488 613h-127v110h127v-110z" unicode="" glyph-name="Idieresis.sc"/>
<glyph d="M576 0h-136l-222 323h-4v-323h-141v542h142l216 -320h5v320h140v-542zM401 735h103q0 -59 -31 -97.5t-91 -38.5q-34 0 -62.5 19t-40.5 19q-31 0 -31 -37h-103q0 60 31 98.5t91 38.5q34 0 62.5 -19t40.5 -19q31 0 31 36z" unicode="" glyph-name="Ntilde.sc"/>
<glyph d="M399 0h-149q-87 0 -129.5 35.5t-42.5 116.5v238q0 81 42.5 116.5t129.5 35.5h149q88 0 130 -35.5t42 -116.5v-238q0 -81 -42 -116.5t-130 -35.5zM276 131h98q31 0 44 12t13 40v178q0 28 -13 40t-44 12h-98q-31 0 -44 -12t-13 -40v-178q0 -28 13 -40t44 -12zM278 604 l-101 128h135l101 -128h-135z" unicode="" glyph-name="Ograve.sc"/>
<glyph d="M399 0h-149q-87 0 -129.5 35.5t-42.5 116.5v238q0 81 42.5 116.5t129.5 35.5h149q88 0 130 -35.5t42 -116.5v-238q0 -81 -42 -116.5t-130 -35.5zM276 131h98q31 0 44 12t13 40v178q0 28 -13 40t-44 12h-98q-31 0 -44 -12t-13 -40v-178q0 -28 13 -40t44 -12zM473 732 l-101 -128h-135l101 128h135z" unicode="" glyph-name="Oacute.sc"/>
<glyph d="M399 0h-149q-87 0 -129.5 35.5t-42.5 116.5v238q0 81 42.5 116.5t129.5 35.5h149q88 0 130 -35.5t42 -116.5v-238q0 -81 -42 -116.5t-130 -35.5zM276 131h98q31 0 44 12t13 40v178q0 28 -13 40t-44 12h-98q-31 0 -44 -12t-13 -40v-178q0 -28 13 -40t44 -12zM159 600 l110 136h112l110 -136h-126l-35 53h-10l-36 -53h-125z" unicode="" glyph-name="Ocircumflex.sc"/>
<glyph d="M399 0h-149q-87 0 -129.5 35.5t-42.5 116.5v238q0 81 42.5 116.5t129.5 35.5h149q88 0 130 -35.5t42 -116.5v-238q0 -81 -42 -116.5t-130 -35.5zM276 131h98q31 0 44 12t13 40v178q0 28 -13 40t-44 12h-98q-31 0 -44 -12t-13 -40v-178q0 -28 13 -40t44 -12zM401 735h103 q0 -59 -31 -97.5t-91 -38.5q-34 0 -62.5 19t-40.5 19q-31 0 -31 -37h-103q0 60 31 98.5t91 38.5q34 0 62.5 -19t40.5 -19q31 0 31 36z" unicode="" glyph-name="Otilde.sc"/>
<glyph d="M399 0h-149q-87 0 -129.5 35.5t-42.5 116.5v238q0 81 42.5 116.5t129.5 35.5h149q88 0 130 -35.5t42 -116.5v-238q0 -81 -42 -116.5t-130 -35.5zM276 131h98q31 0 44 12t13 40v178q0 28 -13 40t-44 12h-98q-31 0 -44 -12t-13 -40v-178q0 -28 13 -40t44 -12zM288 613h-126 v110h126v-110zM488 613h-127v110h127v-110z" unicode="" glyph-name="Odieresis.sc"/>
<glyph d="M570 542v-390q0 -81 -42.5 -116.5t-129.5 -35.5h-146q-88 0 -130 35.5t-42 116.5v390h140v-359q0 -28 13.5 -40t44.5 -12h95q31 0 43.5 12t12.5 40v359h141zM278 604l-101 128h135l101 -128h-135z" unicode="" glyph-name="Ugrave.sc"/>
<glyph d="M570 542v-390q0 -81 -42.5 -116.5t-129.5 -35.5h-146q-88 0 -130 35.5t-42 116.5v390h140v-359q0 -28 13.5 -40t44.5 -12h95q31 0 43.5 12t12.5 40v359h141zM473 732l-101 -128h-135l101 128h135z" unicode="" glyph-name="Uacute.sc"/>
<glyph d="M570 542v-390q0 -81 -42.5 -116.5t-129.5 -35.5h-146q-88 0 -130 35.5t-42 116.5v390h140v-359q0 -28 13.5 -40t44.5 -12h95q31 0 43.5 12t12.5 40v359h141zM159 600l110 136h112l110 -136h-126l-35 53h-10l-36 -53h-125z" unicode="" glyph-name="Ucircumflex.sc"/>
<glyph d="M570 542v-390q0 -81 -42.5 -116.5t-129.5 -35.5h-146q-88 0 -130 35.5t-42 116.5v390h140v-359q0 -28 13.5 -40t44.5 -12h95q31 0 43.5 12t12.5 40v359h141zM288 613h-126v110h126v-110zM488 613h-127v110h127v-110z" unicode="" glyph-name="Udieresis.sc"/>
<glyph d="M574 355l-179 -166v-189h-140v189l-179 166v187h141v-141l108 -104l108 104v141h141v-187zM473 732l-101 -128h-135l101 128h135z" unicode="" glyph-name="Yacute.sc"/>
<glyph d="M574 355l-179 -166v-189h-140v189l-179 166v187h141v-141l108 -104l108 104v141h141v-187zM288 613h-126v110h126v-110zM488 613h-127v110h127v-110z" unicode="" glyph-name="Ydieresis.sc"/>
<glyph d="M398 684l232 -684h-157l-40 127h-217l-39 -127h-158l233 684h146zM322 500l-75 -248h156l-76 248h-5z" glyph-name="A.alt1"/>
<glyph d="M636 0h-167l-200 287l-66 -66v-221h-140v684h140v-271h4l234 271h176l-261 -297z" glyph-name="K.alt1"/>
<glyph d="M617 0h-156l-117 257h-127v-257h-141v684h317q183 0 183 -158v-103q0 -120 -98 -146zM217 384h158q33 0 47 13t14 41v63q0 28 -14 41t-47 13h-158v-171z" glyph-name="R.alt1"/>
<glyph d="M627 684l-229 -684h-146l-229 684h151l149 -470h4l149 470h151z" glyph-name="V.alt1"/>
<glyph d="M284 480h81l72 -221h4l62 425h134l-107 -684h-121l-81 242h-6l-82 -242h-121l-106 684h133l62 -425h5z" glyph-name="W.alt1"/>
<glyph d="M325 462l123 222h159l-191 -325l208 -359h-164l-135 244l-135 -244h-164l208 359l-191 325h159z" glyph-name="X.alt1"/>
<glyph d="M627 684l-233 -383v-301h-140v301l-231 383h162l140 -248l140 248h162z" glyph-name="Y.alt1"/>
<glyph d="M591 0h-165l-151 242l-77 -68v-174h-141v684h141v-339h2l199 197h188l-216 -206z" glyph-name="k.alt1"/>
<glyph d="M450 542h153l-196 -542h-165l-195 542h152l124 -373h4z" glyph-name="v.alt1"/>
<glyph d="M286 393h78l56 -163h4l54 312h138l-100 -542h-123l-66 179h-4l-67 -179h-122l-100 542h138l53 -312h4z" glyph-name="w.alt1"/>
<glyph d="M326 385l96 157h158l-167 -254l189 -288h-160l-116 187l-116 -187h-159l188 288l-166 254h158z" glyph-name="x.alt1"/>
<glyph d="M421 542h140v-554q0 -80 -51 -119t-141 -39h-119q-182 0 -182 154v17l141 36v-28q0 -28 14 -41t47 -13h89q34 0 48 13t14 41v126h-3q-38 -47 -129 -47h-65q-156 0 -156 163v128q0 163 156 163h65q91 0 129 -47h3v47zM278 215h48q95 0 95 67v64q0 35 -26.5 51t-68.5 16 h-48q-69 0 -69 -68v-63q0 -67 69 -67z" glyph-name="g.short"/>
<glyph d="M532 542v-554q0 -80 -51 -119t-141 -39h-88q-181 0 -181 154v65l140 40v-80q0 -28 14 -41t47 -13h59q33 0 47 13t14 41v404h-218v129h358zM532 633h-145v129h145v-129z" glyph-name="j.short"/>
<glyph d="M432 542h140v-554q0 -80 -51 -119t-141 -39h-122q-181 0 -181 154v20l141 36v-31q0 -28 13.5 -41t46.5 -13h93q33 0 47 13t14 41v126h-3q-38 -47 -129 -47h-67q-156 0 -156 163v291h141v-260q0 -67 69 -67h50q95 0 95 67v260z" glyph-name="y.short"/>
<glyph d="M229 542v-47h3q38 47 128 47h66q155 0 155 -163v-216q0 -163 -155 -163h-66q-89 0 -128 46h-3v-216h-141v712h141zM323 131h48q37 0 53.5 18t16.5 57v132q0 39 -16.5 57t-53.5 18h-48q-40 0 -67 -21t-27 -61v-118q0 -40 27 -61t67 -21z" glyph-name="p.short"/>
<glyph d="M421 495v47h140v-709h-140v213h-3q-39 -46 -129 -46h-65q-156 0 -156 163v216q0 163 156 163h65q91 0 129 -47h3zM278 131h48q41 0 68 20.5t27 61.5v118q0 41 -27 61.5t-68 20.5h-48q-37 0 -53 -18t-16 -57v-132q0 -39 16 -57t53 -18z" glyph-name="q.short"/>
<glyph d="M608 0h-173l-150 217l-61 -58v-159h-141v542h141v-207h4l193 207h178l-218 -234z" glyph-name="K.scalt1"/>
<glyph d="M581 0h-154l-92 184h-99v-184h-140v542h285q87 0 129.5 -35.5t42.5 -116.5v-56q0 -108 -84 -129zM236 300h123q31 0 42 11t11 39v20q0 28 -11 38t-42 10h-123v-118z" glyph-name="R.scalt1"/>
<glyph d="M447 542h147l-192 -542h-155l-191 542h147l120 -371h4z" glyph-name="V.scalt1"/>
<glyph d="M289 507h72l76 -273h6l50 308h136l-111 -542h-123l-68 236h-5l-67 -236h-123l-112 542h137l50 -308h5z" glyph-name="W.scalt1"/>
<glyph d="M326 385l96 157h158l-165 -254l187 -288h-160l-116 187l-115 -187h-160l187 288l-165 254h158z" glyph-name="X.scalt1"/>
<glyph d="M613 542l-218 -295v-247h-140v247l-218 295h166l122 -175l122 175h166z" glyph-name="Y.scalt1"/>
<glyph d="M387 0h-124q-182 0 -182 158v226q0 158 182 158h124q182 0 182 -158v-226q0 -158 -182 -158zM282 131h85q33 0 47 13t14 41v174q0 28 -14 41t-47 13h-85q-33 0 -47 -13t-14 -41v-174q0 -28 14 -41t47 -13z" glyph-name="zero.sc"/>
<glyph d="M405 542v-411h170v-131h-500v131h190v282h-153v129h293z" glyph-name="one.sc"/>
<glyph d="M559 0h-469v99l288 211q39 28 39 55v9q0 22 -12.5 32.5t-41.5 10.5h-74q-31 0 -44.5 -12.5t-13.5 -39.5v-31l-140 36v16q0 83 42 119.5t130 36.5h118q177 0 177 -135v-32q0 -42 -16 -71.5t-57 -56.5l-158 -116v-2h232v-129z" glyph-name="two.sc"/>
<glyph d="M91 156l137 36v-28q0 -24 12 -36t43 -12h93q25 0 35 9.5t10 30.5v27q0 21 -10 30.5t-35 9.5h-101v103h101q25 0 35 9.5t10 30.5v22q0 21 -10 30.5t-35 9.5h-93q-31 0 -43 -11.5t-12 -35.5v-23l-137 32v16q0 74 45.5 105t136.5 31h113q89 0 130.5 -30t41.5 -104v-22 q0 -86 -64 -108q36 -11 50 -37t14 -74v-28q0 -78 -41.5 -108.5t-130.5 -30.5h-113q-91 0 -136.5 31.5t-45.5 109.5v15z" glyph-name="three.sc"/>
<glyph d="M594 115h-97v-115h-133v115h-309v115l275 312h167v-309h97v-118zM364 233v155h-3l-140 -153v-2h143z" glyph-name="four.sc"/>
<glyph d="M549 205v-53q0 -81 -42 -116.5t-130 -35.5h-103q-175 0 -175 125v16l133 28v-14q0 -39 47 -39h87q28 0 39 9.5t11 31.5v46q0 21 -11 30.5t-39 9.5h-77q-57 0 -57 -38h-133v337h436v-114h-303v-104q35 26 98 26h54q92 0 128.5 -37t36.5 -108z" glyph-name="five.sc"/>
<glyph d="M560 195v-40q0 -82 -43 -118.5t-131 -36.5h-115q-88 0 -131 36.5t-43 118.5v223q0 81 47.5 122.5t131.5 41.5h110q174 0 174 -121v-18l-133 -36v22q0 21 -10.5 30t-38.5 9h-88q-33 0 -46.5 -14t-13.5 -42v-56q29 22 95 22h71q93 0 128.5 -35t35.5 -108zM427 159v30 q0 22 -11.5 32.5t-40.5 10.5h-88q-57 0 -57 -41v-33q0 -22 9.5 -32t36.5 -10h99q29 0 40.5 10.5t11.5 32.5z" glyph-name="six.sc"/>
<glyph d="M556 423l-216 -423h-161l221 413h-307v129h463v-119z" glyph-name="seven.sc"/>
<glyph d="M550 176v-39q0 -67 -43.5 -102t-128.5 -35h-107q-172 0 -172 137v39q0 41 14 64.5t46 37.5q-32 14 -46 35.5t-14 60.5v36q0 132 172 132h107q172 0 172 -132v-36q0 -39 -14 -60.5t-46 -35.5q32 -14 46 -37.5t14 -64.5zM417 367v21q0 21 -10 31.5t-35 10.5h-95 q-25 0 -35 -10.5t-10 -31.5v-21q0 -42 45 -42h95q45 0 45 42zM417 155v27q0 42 -45 42h-95q-45 0 -45 -42v-27q0 -21 10 -31t35 -10h95q25 0 35 10t10 31z" glyph-name="eight.sc"/>
<glyph d="M100 352v35q0 82 43.5 118.5t131.5 36.5h100q88 0 131 -36.5t43 -118.5v-233q0 -82 -43 -118t-131 -36h-100q-86 0 -130.5 31t-44.5 89v15l133 36v-16q0 -21 11 -30t39 -9h76q31 0 44 11.5t13 37.5v66q-33 -23 -84 -23h-75q-92 0 -124.5 35t-32.5 109zM233 385v-28 q0 -22 11.5 -32.5t41.5 -10.5h73q57 0 57 41v31q0 22 -9.5 32t-36.5 10h-84q-30 0 -41.5 -10.5t-11.5 -32.5z" glyph-name="nine.sc"/>
<glyph d="M75 0v131h180v424h-170v129h479v-129h-169v-424h180v-131h-500zM480 754h-310v100h310v-100z" glyph-name="Imacron"/>
<glyph d="M398 684l232 -684h-157l-40 127h-217l-39 -127h-158l233 684h146zM322 500l-75 -248h156l-76 248h-5zM288 750h-126v110h126v-110zM488 750h-127v110h127v-110z" glyph-name="Adieresis.alt1"/>
<glyph d="M398 684l232 -684h-157l-40 127h-217l-39 -127h-158l233 684h146zM322 500l-75 -248h156l-76 248h-5zM473 869l-101 -128h-135l101 128h135z" glyph-name="Aacute.alt1"/>
<glyph d="M398 684l232 -684h-157l-40 127h-217l-39 -127h-158l233 684h146zM322 500l-75 -248h156l-76 248h-5zM278 741l-101 128h135l101 -128h-135z" glyph-name="Agrave.alt1"/>
<glyph d="M398 684l232 -684h-157l-40 127h-217l-39 -127h-158l233 684h146zM322 500l-75 -248h156l-76 248h-5zM159 737l110 136h112l110 -136h-126l-35 53h-10l-36 -53h-125z" glyph-name="Acircumflex.alt1"/>
<glyph d="M398 684l232 -684h-157l-40 127h-217l-39 -127h-158l233 684h146zM322 500l-75 -248h156l-76 248h-5zM401 874h103q0 -59 -31 -97.5t-91 -38.5q-34 0 -62.5 19t-40.5 19q-31 0 -31 -37h-103q0 60 31 98.5t91 38.5q34 0 62.5 -19t40.5 -19q31 0 31 36z" glyph-name="Atilde.alt1"/>
<glyph d="M398 684l232 -684h-157l-40 127h-217l-39 -127h-158l233 684h146zM322 500l-75 -248h156l-76 248h-5zM480 754h-310v100h310v-100z" glyph-name="Amacron.alt1"/>
<glyph d="M288 750h-126v110h126v-110zM488 750h-127v110h127v-110zM627 684l-233 -383v-301h-140v301l-231 383h162l140 -248l140 248h162z" glyph-name="Ydieresis.alt1"/>
<glyph d="M473 869l-101 -128h-135l101 128h135zM627 684l-233 -383v-301h-140v301l-231 383h162l140 -248l140 248h162z" glyph-name="Yacute.alt1"/>
<glyph d="M398 684l232 -684h-157l-40 127h-217l-39 -127h-158l233 684h146zM322 500l-75 -248h156l-76 248h-5zM288 814q0 -16 10 -26t26 -10t26 10t10 26t-10 26t-26 10t-26 -10t-10 -26zM219 814q0 45 30 74t75 29t75.5 -29t30.5 -74t-30.5 -74t-75.5 -29t-75 29t-30 74z" glyph-name="Aring.alt1"/>
<glyph d="M109 0v131h145v282h-133v129h407v-129h-134v-282h146v-131h-431zM401 735h103q0 -59 -31 -97.5t-91 -38.5q-34 0 -62.5 19t-40.5 19q-31 0 -31 -37h-103q0 60 31 98.5t91 38.5q34 0 62.5 -19t40.5 -19q31 0 31 36z" glyph-name="Itilde.sc"/>
<glyph d="M570 542v-390q0 -81 -42.5 -116.5t-129.5 -35.5h-146q-88 0 -130 35.5t-42 116.5v390h140v-359q0 -28 13.5 -40t44.5 -12h95q31 0 43.5 12t12.5 40v359h141zM401 735h103q0 -59 -31 -97.5t-91 -38.5q-34 0 -62.5 19t-40.5 19q-31 0 -31 -37h-103q0 60 31 98.5t91 38.5 q34 0 62.5 -19t40.5 -19q31 0 31 36z" glyph-name="Utilde.sc"/>
<glyph d="M405 542l216 -542h-156l-42 111h-197l-42 -111h-155l216 542h160zM322 399l-65 -178h136l-66 178h-5zM288 613h-126v110h126v-110zM488 613h-127v110h127v-110z" glyph-name="Adieresis.scalt1"/>
<glyph d="M405 542l216 -542h-156l-42 111h-197l-42 -111h-155l216 542h160zM322 399l-65 -178h136l-66 178h-5zM473 732l-101 -128h-135l101 128h135z" glyph-name="Aacute.scalt1"/>
<glyph d="M405 542l216 -542h-156l-42 111h-197l-42 -111h-155l216 542h160zM322 399l-65 -178h136l-66 178h-5zM278 604l-101 128h135l101 -128h-135z" glyph-name="Agrave.scalt1"/>
<glyph d="M405 542l216 -542h-156l-42 111h-197l-42 -111h-155l216 542h160zM322 399l-65 -178h136l-66 178h-5zM159 600l110 136h112l110 -136h-126l-35 53h-10l-36 -53h-125z" glyph-name="Acircumflex.scalt1"/>
<glyph d="M405 542l216 -542h-156l-42 111h-197l-42 -111h-155l216 542h160zM322 399l-65 -178h136l-66 178h-5zM401 735h103q0 -59 -31 -97.5t-91 -38.5q-34 0 -62.5 19t-40.5 19q-31 0 -31 -37h-103q0 60 31 98.5t91 38.5q34 0 62.5 -19t40.5 -19q31 0 31 36z" glyph-name="Atilde.scalt1"/>
<glyph d="M405 542l216 -542h-156l-42 111h-197l-42 -111h-155l216 542h160zM322 399l-65 -178h136l-66 178h-5zM480 618h-310v100h310v-100z" glyph-name="Amacron.scalt1"/>
<glyph d="M613 542l-218 -295v-247h-140v247l-218 295h166l122 -175l122 175h166zM288 613h-126v110h126v-110zM488 613h-127v110h127v-110z" glyph-name="Ydieresis.scalt1"/>
<glyph d="M613 542l-218 -295v-247h-140v247l-218 295h166l122 -175l122 175h166zM473 732l-101 -128h-135l101 128h135z" glyph-name="Yacute.scalt1"/>
<glyph d="M405 542l216 -542h-156l-42 111h-197l-42 -111h-155l216 542h160zM322 399l-65 -178h136l-66 178h-5zM288 685q0 -16 10 -26t26 -10t26 10t10 26q0 17 -10 26.5t-26 9.5t-26 -10t-10 -26zM219 685q0 45 30 74t75 29t75.5 -29t30.5 -74t-30.5 -74t-75.5 -29t-75 29t-30 74 z" glyph-name="Aring.scalt1"/>
<glyph d="M131 269l-29 95h130l-209 320h166l136 -249l136 249h166l-209 -320h127l-29 -95h-121v-45h102l-25 -95h-77v-129h-140v129h-80l-25 95h105v45h-124z" glyph-name="yen.alt1"/>
<glyph d="M274 -65v65h-16q-163 0 -163 129v21l133 30v-21q0 -24 11.5 -33.5t46.5 -9.5h77q32 0 45 10t13 34v15q0 25 -14.5 36t-54.5 11h-85q-93 0 -132.5 33t-39.5 111v28q0 78 47.5 113t116.5 35h15v68h102v-68h16q162 0 162 -128v-10l-133 -34v16q0 23 -11 32.5t-46 9.5h-78 q-30 0 -44 -9t-14 -32v-12q0 -24 15 -33.5t55 -9.5h77q93 0 136 -37.5t43 -115.5v-31q0 -76 -47.5 -112t-115.5 -36h-15v-65h-102z" glyph-name="dollar.sc"/>
<glyph d="M266 -64v64h-24q-164 0 -164 152v238q0 152 164 152h24v67h118v-67h23q164 0 164 -152v-24l-140 -40v35q0 28 -13 40t-44 12h-98q-31 0 -44 -12t-13 -40v-178q0 -28 13 -40t44 -12h98q31 0 44 12t13 40v44l140 -44v-31q0 -152 -164 -152h-23v-64h-118z" glyph-name="cent.sc"/>
<glyph d="M547 123v-123h-429v215h-71v101h71v74q0 81 42.5 116.5t129.5 35.5h120q88 0 130 -35.5t42 -116.5v-17l-133 -37v34q0 27 -13 39t-43 12h-85q-30 0 -43.5 -12.5t-13.5 -39.5v-53h135l-25 -101h-110v-92h296z" glyph-name="sterling.sc"/>
<glyph d="M131 159l-32 95h123l7 2l-153 129v157h141v-130l108 -100l108 100v130h141v-157l-153 -129l10 -2h118l-33 -95h-125v-159h-133v159h-127z" glyph-name="yen.sc"/>
<glyph d="M35 289v64h76v37q0 81 42 116.5t130 35.5h127q88 0 130 -35.5t42 -116.5v-13l-133 -30v29q0 28 -12.5 40t-43.5 12h-92q-33 0 -45 -9.5t-12 -34.5v-31h139l-17 -64h-122v-35h112l-18 -64h-94v-30q0 -25 12 -34.5t45 -9.5h92q31 0 43.5 12t12.5 40v32l133 -31v-17 q0 -82 -39 -117t-125 -35h-135q-88 0 -130 35.5t-42 116.5v38h-76v64h76v35h-76z" glyph-name="Euro.sc"/>
<glyph d="M164 171l-33 100h109l-201 271h163l123 -181l123 181h162l-200 -271h106l-32 -100h-89v-171h-140v171h-91z" glyph-name="yen.scalt1"/>
<glyph d="M571 684v-777h-140v648h-198q-33 0 -46.5 -13t-13.5 -41v-58q0 -29 13.5 -43t46.5 -14h108v-479h-141v354h-27q-59 0 -100 36t-41 113v116q0 158 182 158h357z" glyph-name="Paragraph"/>
<glyph d="M632 99l-34 -99h-422q-78 0 -122.5 37t-44.5 109v393q0 71 44.5 108.5t122.5 37.5h304q160 0 160 -139v-221q0 -76 -25 -115.5t-96 -39.5h-27q-78 0 -99 46h-3q-26 -46 -92 -46h-29q-98 0 -98 106v130q0 107 98 107h29q60 0 84 -43h3l9 40h81v-215q0 -22 6.5 -30t24.5 -8 q17 0 24 8t7 32v227q0 33 -16 47.5t-54 14.5h-275q-38 0 -59 -18.5t-21 -51.5v-348q0 -32 21 -50.5t59 -18.5h440zM274 372v-57q0 -43 35 -43h18q21 0 33 17.5t12 42.5v22q0 25 -12 42.5t-33 17.5h-18q-35 0 -35 -42z" glyph-name="at.alt1"/>
<glyph d="M629 0h-126v40h-4q-27 -40 -104 -40h-40q-58 0 -89 31t-31 87v230q0 56 31 87t89 31h40q38 0 67 -14.5t37 -30.5h4v86q0 32 -15.5 45.5t-53.5 13.5h-213q-38 0 -58.5 -19t-20.5 -52v-487q0 -33 20.5 -51.5t58.5 -18.5h414l29 -108h-481q-78 0 -122.5 37t-44.5 109v562 q0 72 44.5 109t122.5 37h286q160 0 160 -140v-544zM361 298v-129q0 -52 51 -52h28q28 0 45.5 17.5t17.5 47.5v97q0 31 -17 50.5t-46 19.5h-28q-51 0 -51 -51z" glyph-name="at.alt2"/>
<glyph d="M629 0h-126v40h-4q-27 -40 -111 -40h-38q-58 0 -89 31t-31 87v145q0 111 120 111h38q38 0 70.5 -15t40.5 -30h4v64q0 33 -15.5 46.5t-53.5 13.5h-208q-38 0 -58.5 -19t-20.5 -52v-373q0 -32 20.5 -50.5t58.5 -18.5h409l29 -110h-476q-78 0 -122.5 37t-44.5 109v441 q0 72 44.5 109t122.5 37h281q160 0 160 -140v-423zM356 213v-52q0 -51 51 -51h25q30 0 50.5 16t20.5 45v27q0 29 -20.5 47.5t-50.5 18.5h-25q-51 0 -51 -51z" glyph-name="at.alt3"/>
<glyph d="M-101 768v-852h852v852h-852zM-249 -232v1148h1148v-1148h-1148z" glyph-name="box"/>
</font>
</defs>
</svg>
